<?xml version="1.0" encoding="UTF-8" standalone="no"?>
<!DOCTYPE svg PUBLIC "-//W3C//DTD SVG 1.1//EN" "http://www.w3.org/Graphics/SVG/1.1/DTD/svg11.dtd">
<svg xmlns="http://www.w3.org/2000/svg" version="1.1" viewBox="0.00 0.00 500.00 500.00">
<g stroke-width="2.00" fill="none" stroke-linecap="butt">
<path stroke="#302f30" vector-effect="non-scaling-stroke" d="
  M 359.77 243.51
  Q 358.14 243.57 358.63 242.72"
/>
<path stroke="#302f30" vector-effect="non-scaling-stroke" d="
  M 356.92 242.09
  Q 353.60 241.40 351.38 239.40
  Q 351.09 239.14 350.79 239.40
  Q 349.81 240.26 348.86 238.47"
/>
<path stroke="#302f30" vector-effect="non-scaling-stroke" d="
  M 338.53 236.71
  L 337.61 237.11"
/>
<path stroke="#302f30" vector-effect="non-scaling-stroke" d="
  M 305.46 276.23
  L 305.49 277.10"
/>
<path stroke="#302f30" vector-effect="non-scaling-stroke" d="
  M 303.87 281.58
  Q 304.25 281.68 303.20 282.36"
/>
<path stroke="#555352" stroke-opacity="0.882" vector-effect="non-scaling-stroke" d="
  M 296.86 306.78
  Q 296.38 306.75 295.85 306.42"
/>
<path stroke="#555352" stroke-opacity="0.882" vector-effect="non-scaling-stroke" d="
  M 291.30 326.02
  Q 291.43 326.18 291.90 326.33
  Q 292.38 326.48 292.49 326.97
  Q 292.65 327.71 292.26 328.22"
/>
<path stroke="#555352" stroke-opacity="0.882" vector-effect="non-scaling-stroke" d="
  M 291.54 330.17
  Q 291.44 333.17 288.88 331.99"
/>
<path stroke="#555352" stroke-opacity="0.882" vector-effect="non-scaling-stroke" d="
  M 271.47 349.69
  Q 271.61 350.62 271.23 351.48"
/>
<path stroke="#555352" stroke-opacity="0.882" vector-effect="non-scaling-stroke" d="
  M 279.25 349.64
  Q 281.53 347.78 281.57 349.21"
/>
<path stroke="#555352" stroke-opacity="0.882" vector-effect="non-scaling-stroke" d="
  M 304.39 342.55
  Q 305.23 341.08 306.83 341.24"
/>
<path stroke="#555352" stroke-opacity="0.882" vector-effect="non-scaling-stroke" d="
  M 322.89 326.86
  Q 323.74 327.12 324.06 327.79"
/>
<path stroke="#555352" stroke-opacity="0.882" vector-effect="non-scaling-stroke" d="
  M 328.73 320.47
  Q 328.03 321.00 327.57 321.11
  Q 327.09 321.22 326.79 320.42
  Q 326.49 319.62 326.11 318.84"
/>
<path stroke="#302f30" vector-effect="non-scaling-stroke" d="
  M 342.52 308.24
  Q 342.78 308.23 343.05 308.09
  Q 343.40 307.89 343.61 308.23
  L 343.86 308.62"
/>
<path stroke="#302f30" vector-effect="non-scaling-stroke" d="
  M 148.37 293.92
  Q 148.59 292.72 149.87 292.10"
/>
<path stroke="#302f30" vector-effect="non-scaling-stroke" d="
  M 166.63 290.29
  L 167.02 290.69"
/>
<path stroke="#302f30" vector-effect="non-scaling-stroke" d="
  M 223.78 326.53
  Q 223.94 325.74 224.54 324.90"
/>
<path stroke="#302f30" vector-effect="non-scaling-stroke" d="
  M 254.99 303.23
  Q 255.43 303.31 255.68 303.19"
/>
<path stroke="#302f30" vector-effect="non-scaling-stroke" d="
  M 292.07 280.30
  Q 292.71 278.38 292.24 278.46"
/>
<path stroke="#302f30" vector-effect="non-scaling-stroke" d="
  M 297.21 258.31
  Q 297.64 258.46 297.94 257.47"
/>
<path stroke="#302f30" vector-effect="non-scaling-stroke" d="
  M 294.51 230.48
  L 293.28 230.51"
/>
<path stroke="#302f30" vector-effect="non-scaling-stroke" d="
  M 202.42 236.50
  Q 201.61 236.78 201.27 235.73"
/>
<path stroke="#302f30" vector-effect="non-scaling-stroke" d="
  M 194.20 233.52
  L 193.21 232.68"
/>
<path stroke="#302f30" vector-effect="non-scaling-stroke" d="
  M 158.77 241.76
  Q 158.17 241.92 157.76 241.23"
/>
<path stroke="#302f30" vector-effect="non-scaling-stroke" d="
  M 153.04 245.02
  Q 152.42 245.08 151.93 244.68"
/>
<path stroke="#302f30" vector-effect="non-scaling-stroke" d="
  M 140.47 248.39
  Q 139.59 248.53 139.20 248.16"
/>
<path stroke="#201f1d" stroke-opacity="0.882" vector-effect="non-scaling-stroke" d="
  M 329.44 302.21
  Q 329.13 302.17 329.19 301.67"
/>
<path stroke="#302f30" vector-effect="non-scaling-stroke" d="
  M 266.99 279.78
  Q 266.72 280.17 266.75 280.47"
/>
<path stroke="#302f30" vector-effect="non-scaling-stroke" d="
  M 279.34 279.97
  Q 279.48 277.92 279.87 278.46"
/>
</g>
<path fill="#5f5d5f" d="
  M 359.77 243.51
  Q 358.14 243.57 358.63 242.72
  Q 356.57 220.51 345.54 201.08
  Q 345.18 200.43 344.68 200.98
  Q 343.84 201.90 344.47 203.77
  Q 349.41 218.57 349.44 235.74
  Q 349.45 236.26 349.85 236.58
  L 356.92 242.09
  Q 353.60 241.40 351.38 239.40
  Q 351.09 239.14 350.79 239.40
  Q 349.81 240.26 348.86 238.47
  Q 345.04 234.71 339.11 233.01
  A 0.91 0.91 0.0 0 0 337.97 234.07
  L 338.53 236.71
  L 337.61 237.11
  C 337.48 233.68 336.56 231.87 333.07 230.85
  Q 322.93 227.89 312.88 225.81
  A 1.17 1.16 -83.1 0 0 311.48 226.91
  Q 310.49 251.21 304.68 274.48
  Q 304.35 275.81 305.46 276.23
  L 305.49 277.10
  Q 302.62 277.89 303.87 281.58
  Q 304.25 281.68 303.20 282.36
  C 301.50 284.16 300.77 287.67 299.91 289.99
  C 297.94 295.27 297.58 301.21 296.86 306.78
  Q 296.38 306.75 295.85 306.42
  Q 296.40 304.89 296.10 303.88
  A 0.56 0.56 0.0 0 0 295.05 303.81
  Q 289.70 315.88 282.48 326.95
  A 0.54 0.54 0.0 0 0 282.99 327.79
  C 285.88 327.45 288.77 327.82 291.30 326.02
  Q 291.43 326.18 291.90 326.33
  Q 292.38 326.48 292.49 326.97
  Q 292.65 327.71 292.26 328.22
  L 291.54 330.17
  Q 291.44 333.17 288.88 331.99
  L 282.11 329.71
  A 1.61 1.61 0.0 0 0 280.30 330.27
  Q 270.88 343.09 258.13 352.59
  A 0.47 0.46 22.3 0 0 258.48 353.42
  Q 265.08 352.46 271.47 349.69
  Q 271.61 350.62 271.23 351.48
  L 263.87 354.20
  A 0.15 0.15 0.0 0 0 263.92 354.49
  C 269.41 354.54 275.67 354.13 279.25 349.64
  Q 281.53 347.78 281.57 349.21
  L 280.08 351.30
  A 0.45 0.45 0.0 0 0 280.56 352.00
  Q 293.12 348.66 304.39 342.55
  Q 305.23 341.08 306.83 341.24
  Q 316.68 336.18 322.89 326.86
  Q 323.74 327.12 324.06 327.79
  Q 324.18 328.47 324.92 327.92
  Q 330.32 323.86 334.94 318.04
  Q 336.54 316.03 334.03 316.59
  Q 331.36 317.18 328.73 320.47
  Q 328.03 321.00 327.57 321.11
  Q 327.09 321.22 326.79 320.42
  Q 326.49 319.62 326.11 318.84
  C 330.32 317.80 332.95 309.76 334.98 304.41
  A 0.40 0.40 0.0 0 1 335.75 304.59
  C 335.45 307.67 332.86 312.72 331.56 315.53
  A 0.40 0.39 -87.4 0 0 332.05 316.07
  Q 338.74 313.61 342.52 308.24
  Q 342.78 308.23 343.05 308.09
  Q 343.40 307.89 343.61 308.23
  L 343.86 308.62
  C 316.02 352.58 263.78 370.98 214.39 355.13
  C 184.56 345.55 161.33 322.62 148.37 293.92
  Q 148.59 292.72 149.87 292.10
  L 153.87 298.93
  A 0.90 0.89 24.2 0 0 155.52 298.31
  L 152.69 284.26
  Q 153.32 284.45 153.44 285.01
  Q 154.58 290.33 156.18 295.26
  A 1.18 1.18 0.0 0 0 158.13 295.74
  Q 161.56 292.40 166.63 290.29
  L 167.02 290.69
  L 158.44 296.66
  A 2.22 2.22 0.0 0 0 157.61 299.21
  C 158.80 302.62 163.19 314.43 166.66 315.95
  Q 178.87 321.31 192.04 323.85
  A 0.41 0.41 0.0 0 0 192.41 323.17
  Q 184.42 314.63 180.15 306.93
  Q 176.92 301.10 180.83 306.49
  Q 187.07 315.09 194.50 322.75
  A 0.50 0.49 -77.2 0 0 195.32 322.23
  Q 192.28 313.81 191.01 304.94
  Q 190.93 304.40 191.47 304.47
  Q 191.99 304.53 192.15 305.33
  Q 194.10 314.93 197.17 323.89
  A 1.91 1.90 85.1 0 0 198.67 325.16
  Q 209.58 326.87 219.91 327.99
  Q 221.70 328.19 223.78 326.53
  Q 223.94 325.74 224.54 324.90
  Q 225.27 326.94 226.74 326.84
  Q 233.65 326.34 240.57 325.65
  A 1.60 1.59 86.9 0 0 242.01 324.04
  L 241.45 294.75
  A 0.43 0.43 0.0 0 1 242.31 294.68
  C 243.66 302.95 242.74 313.27 242.95 323.04
  A 2.52 2.52 0.0 0 0 245.47 325.50
  L 252.26 325.50
  A 1.08 1.07 -87.7 0 0 253.33 324.51
  L 254.99 303.23
  Q 255.43 303.31 255.68 303.19
  L 254.64 324.66
  A 0.93 0.92 2.4 0 0 255.54 325.63
  Q 266.83 325.95 278.25 327.71
  Q 280.36 328.04 281.49 326.26
  Q 290.28 312.48 296.09 297.89
  C 298.04 292.98 297.60 287.24 297.46 282.06
  Q 297.45 281.50 296.91 281.38
  L 292.07 280.30
  Q 292.71 278.38 292.24 278.46
  L 296.64 277.12
  A 1.96 1.95 -10.1 0 0 298.02 275.15
  L 297.21 258.31
  Q 297.64 258.46 297.94 257.47
  L 298.69 275.70
  A 1.16 1.14 -80.8 0 0 299.42 276.73
  C 302.45 277.90 303.64 275.54 304.29 272.97
  Q 309.42 252.77 310.04 228.02
  Q 310.08 226.71 310.00 225.82
  A 0.81 0.79 -88.7 0 0 309.33 225.10
  L 294.68 222.92
  A 1.07 1.06 89.4 0 0 293.48 224.15
  L 294.51 230.48
  L 293.28 230.51
  L 291.30 223.17
  A 0.98 0.97 89.4 0 0 290.60 222.48
  Q 286.64 221.50 281.49 222.24
  Q 276.50 222.96 260.25 223.70
  Q 258.15 223.80 258.55 226.00
  Q 258.86 227.66 258.15 229.08
  A 0.31 0.30 -33.0 0 1 257.57 228.96
  L 257.37 225.09
  Q 257.30 223.64 255.84 223.65
  L 244.49 223.79
  A 0.94 0.94 0.0 0 0 243.56 224.70
  L 242.51 259.05
  Q 242.49 259.46 242.08 259.41
  Q 241.75 259.38 241.74 259.00
  Q 241.32 242.62 241.55 225.93
  Q 241.58 223.74 239.39 223.56
  Q 226.38 222.53 214.25 221.98
  C 210.76 221.82 201.35 221.37 201.98 226.75
  Q 202.45 230.75 202.42 236.50
  Q 201.61 236.78 201.27 235.73
  L 200.71 225.44
  A 2.26 2.26 0.0 0 0 196.25 225.03
  L 194.20 233.52
  L 193.21 232.68
  L 195.01 225.20
  A 0.71 0.71 0.0 0 0 194.22 224.33
  Q 176.38 226.84 159.45 232.94
  A 0.87 0.86 80.7 0 0 158.88 233.74
  L 158.77 241.76
  Q 158.17 241.92 157.76 241.23
  L 157.41 235.30
  A 1.09 1.09 0.0 0 0 155.26 235.13
  L 153.04 245.02
  Q 152.42 245.08 151.93 244.68
  L 153.30 236.70
  A 0.50 0.50 0.0 0 0 152.55 236.18
  C 147.37 239.25 142.02 241.87 140.47 248.39
  Q 139.59 248.53 139.20 248.16
  Q 140.52 199.27 176.90 166.86
  C 233.66 116.28 321.78 137.96 351.70 206.27
  C 356.50 217.25 360.61 231.53 359.77 243.51
  Z
  M 282.5283 147.8162
  A 5.14 0.70 13.0 0 0 277.6775 145.9779
  A 5.14 0.70 13.0 0 0 272.5117 145.5038
  A 5.14 0.70 13.0 0 0 277.3625 147.3421
  A 5.14 0.70 13.0 0 0 282.5283 147.8162
  Z
  M 220.43 152.07
  L 235.19 146.12
  A 0.26 0.26 0.0 0 0 235.09 145.61
  C 230.65 145.69 221.45 146.27 219.89 151.58
  Q 219.66 152.38 220.43 152.07
  Z
  M 248.26 145.52
  C 237.35 151.36 228.19 159.87 221.14 169.99
  A 0.33 0.33 0.0 0 0 221.43 170.51
  L 244.16 169.51
  Q 245.57 169.45 245.76 168.06
  L 248.85 145.93
  A 0.40 0.40 0.0 0 0 248.26 145.52
  Z
  M 248.61 169.50
  L 255.13 169.52
  A 0.93 0.93 0.0 0 0 256.06 168.59
  L 256.06 168.46
  A 22.70 4.15 -89.9 0 0 251.95 145.75
  L 251.87 145.75
  A 22.70 4.15 -89.9 0 0 247.68 168.44
  L 247.68 168.57
  A 0.93 0.93 0.0 0 0 248.61 169.50
  Z
  M 242.86 146.04
  Q 234.66 148.13 226.77 150.99
  C 217.62 154.32 213.24 158.03 211.01 167.27
  Q 210.77 168.29 211.72 168.74
  Q 214.75 170.17 218.09 170.30
  Q 218.61 170.32 219.03 170.00
  Q 220.49 168.88 221.81 167.07
  Q 230.72 154.89 243.19 146.80
  A 0.42 0.42 0.0 0 0 242.86 146.04
  Z
  M 255.95 147.29
  C 263.35 153.55 268.84 161.22 273.56 169.58
  Q 273.81 170.02 274.30 170.17
  C 280.39 171.93 288.67 169.53 294.43 167.14
  A 0.38 0.38 0.0 0 0 294.53 166.50
  Q 277.75 152.24 256.53 146.20
  A 0.63 0.63 0.0 0 0 255.95 147.29
  Z
  M 285.97 151.68
  Q 274.80 146.59 262.42 146.29
  A 0.23 0.23 0.0 0 0 262.34 146.74
  Q 280.82 153.15 295.61 165.93
  A 1.05 1.05 0.0 0 0 297.25 164.70
  C 294.82 159.51 291.46 154.17 285.97 151.68
  Z
  M 216.3159 146.7988
  A 0.30 0.30 0.0 0 0 215.9336 146.6149
  L 201.0027 151.8436
  A 0.30 0.30 0.0 0 0 200.8187 152.2259
  L 200.9641 152.6412
  A 0.30 0.30 0.0 0 0 201.3464 152.8251
  L 216.2773 147.5964
  A 0.30 0.30 0.0 0 0 216.4613 147.2141
  L 216.3159 146.7988
  Z
  M 304.29 156.86
  C 298.32 151.41 294.44 149.86 286.94 148.07
  A 0.51 0.51 0.0 0 0 286.55 149.00
  Q 294.81 154.12 304.05 157.27
  Q 305.15 157.65 304.29 156.86
  Z
  M 195.37 159.86
  L 197.21 163.36
  A 1.82 1.82 0.0 0 0 199.67 164.13
  L 199.69 164.12
  A 23.97 3.80 -27.7 0 0 219.15 149.61
  L 219.15 149.61
  A 23.97 3.80 -27.7 0 0 196.16 157.39
  L 196.13 157.40
  A 1.82 1.82 0.0 0 0 195.37 159.86
  Z
  M 256.20 150.67
  L 257.43 168.33
  A 1.46 1.46 0.0 0 0 258.83 169.69
  L 271.26 170.22
  A 0.57 0.57 0.0 0 0 271.79 169.38
  Q 265.92 158.62 256.93 150.32
  A 0.44 0.43 19.3 0 0 256.20 150.67
  Z
  M 304.02 161.25
  A 1.44 1.44 0.0 0 0 303.46 159.14
  L 292.80 154.02
  A 0.45 0.45 0.0 0 0 292.23 154.68
  L 298.38 163.96
  Q 299.25 165.28 300.60 164.47
  Q 302.66 163.22 304.02 161.25
  Z
  M 306.82 159.80
  C 313.72 164.15 319.40 168.63 325.41 173.97
  A 0.45 0.45 0.0 0 0 326.05 173.35
  Q 318.01 163.69 307.37 157.17
  Q 306.76 156.79 306.63 156.90
  A 1.80 1.80 0.0 0 0 306.82 159.80
  Z
  M 202.05 164.62
  A 0.62 0.62 0.0 0 0 202.17 165.72
  L 208.29 168.05
  A 0.62 0.62 0.0 0 0 209.08 167.72
  L 212.91 158.89
  A 0.62 0.62 0.0 0 0 212.00 158.12
  L 202.05 164.62
  Z
  M 197.61 164.28
  C 196.03 163.65 194.44 160.88 194.00 159.47
  A 0.91 0.91 0.0 0 0 192.68 158.95
  Q 179.79 166.37 172.89 179.59
  Q 172.58 180.19 173.23 180.02
  Q 178.90 178.55 184.44 176.65
  C 189.06 175.07 194.11 169.31 197.82 166.08
  A 1.19 1.17 -33.3 0 0 198.12 164.69
  Q 198.00 164.44 197.61 164.28
  Z
  M 308.01 161.98
  C 305.32 160.32 302.41 164.65 300.42 166.11
  A 0.85 0.84 -25.9 0 0 300.11 166.99
  C 301.50 172.42 304.80 174.32 310.36 175.56
  Q 320.38 177.79 330.06 181.30
  A 0.37 0.37 0.0 0 0 330.52 180.78
  Q 330.41 180.57 330.31 180.29
  Q 330.22 180.03 330.02 179.83
  Q 318.65 168.53 308.01 161.98
  Z
  M 207.74 169.22
  L 200.54 166.37
  A 0.90 0.90 0.0 0 0 199.62 166.53
  L 190.59 174.26
  A 0.41 0.40 20.8 0 0 190.91 174.97
  Q 197.88 173.98 204.78 172.60
  C 206.59 172.24 207.86 172.17 208.17 169.98
  A 0.71 0.71 0.0 0 0 207.74 169.22
  Z
  M 300.66 173.01
  C 298.33 166.06 292.01 169.06 287.47 170.86
  A 0.42 0.42 0.0 0 0 287.56 171.66
  L 300.26 173.49
  Q 300.85 173.57 300.66 173.01
  Z
  M 256.1852 171.7916
  A 0.78 0.78 0.0 0 0 255.4190 170.9981
  L 247.6401 170.8623
  A 0.78 0.78 0.0 0 0 246.8466 171.6285
  L 246.8348 172.3084
  A 0.78 0.78 0.0 0 0 247.6010 173.1019
  L 255.3799 173.2377
  A 0.78 0.78 0.0 0 0 256.1734 172.4715
  L 256.1852 171.7916
  Z
  M 257.80 171.15
  L 257.80 172.65
  A 0.29 0.29 0.0 0 0 258.09 172.94
  L 258.29 172.94
  A 11.69 1.01 0.2 0 0 269.98 171.97
  L 269.98 171.91
  A 11.69 1.01 0.2 0 0 258.29 170.86
  L 258.09 170.86
  A 0.29 0.29 0.0 0 0 257.80 171.15
  Z
  M 245.44 172.90
  L 245.47 171.65
  A 0.42 0.42 0.0 0 0 245.07 171.21
  L 244.92 171.21
  A 16.63 0.94 1.7 0 0 228.27 171.65
  L 228.26 171.87
  A 16.63 0.94 1.7 0 0 244.86 173.31
  L 245.01 173.31
  A 0.42 0.42 0.0 0 0 245.44 172.90
  Z
  M 175.34 171.01
  L 163.23 183.64
  L 163.22 183.64
  A 8.59 2.77 -46.2 0 0 171.17 179.35
  L 171.39 179.12
  A 8.59 2.77 -46.2 0 0 175.34 171.01
  L 175.34 171.01
  Z
  M 208.49 174.17
  Q 205.18 184.87 203.80 195.99
  A 0.50 0.49 -29.0 0 0 204.74 196.26
  Q 210.21 184.48 217.09 173.48
  A 0.66 0.66 0.0 0 0 216.46 172.47
  L 209.75 173.14
  A 1.47 1.46 -84.0 0 0 208.49 174.17
  Z
  M 242.93 174.54
  C 238.26 174.49 233.06 174.35 227.68 173.20
  C 222.88 172.17 219.12 171.99 216.55 176.30
  C 209.50 188.11 201.25 202.85 202.33 217.92
  A 1.15 1.14 3.4 0 0 203.25 218.95
  C 215.08 221.24 227.34 218.60 238.94 219.12
  Q 240.87 219.20 242.03 218.50
  Q 242.53 218.19 242.57 217.61
  L 245.19 175.71
  A 0.87 0.87 0.0 0 0 244.64 174.86
  Q 243.83 174.55 242.93 174.54
  Z
  M 309.94 215.67
  Q 309.26 195.56 302.71 176.58
  A 2.40 2.38 85.4 0 0 300.89 175.01
  C 294.56 173.81 283.11 171.31 277.05 172.81
  Q 275.68 173.15 276.30 174.42
  Q 286.70 195.32 291.85 218.13
  Q 292.24 219.88 294.01 219.56
  L 308.98 216.86
  A 1.17 1.17 0.0 0 0 309.94 215.67
  Z
  M 258.81 218.14
  A 0.86 0.86 0.0 0 0 259.64 218.99
  L 289.13 220.35
  A 1.53 1.53 0.0 0 0 290.69 218.46
  Q 285.01 195.51 274.72 174.23
  A 1.72 1.71 74.3 0 0 273.02 173.27
  L 259.08 174.50
  A 1.20 1.19 -3.3 0 0 257.99 175.72
  L 258.81 218.14
  Z
  M 166.89 208.73
  Q 180.73 215.02 195.76 217.50
  A 1.51 1.51 0.0 0 0 197.43 216.52
  C 199.09 211.92 200.91 207.63 201.52 202.65
  Q 203.27 188.33 206.77 174.46
  A 0.74 0.73 2.0 0 0 205.92 173.56
  L 188.46 176.78
  Q 187.97 176.87 187.62 177.23
  Q 174.90 190.42 166.15 206.53
  A 1.59 1.58 -63.7 0 0 166.89 208.73
  Z
  M 254.88 175.00
  L 247.31 174.67
  Q 246.52 174.64 246.47 175.43
  L 243.83 217.32
  A 1.28 1.28 0.0 0 0 245.08 218.68
  L 255.35 218.92
  Q 257.55 218.98 257.49 216.79
  Q 257.06 198.54 256.91 180.94
  Q 256.88 177.80 255.82 175.62
  Q 255.53 175.03 254.88 175.00
  Z
  M 342.25 201.77
  A 1.11 1.10 44.6 0 0 342.24 200.97
  Q 339.57 194.48 336.41 188.07
  C 333.39 181.96 314.12 177.62 307.82 176.45
  A 0.36 0.35 -15.1 0 0 307.48 177.03
  Q 320.58 191.83 329.11 209.68
  A 1.07 1.06 65.1 0 0 330.51 210.20
  C 333.75 208.76 340.97 205.10 342.25 201.77
  Z
  M 305.34 177.48
  A 0.48 0.48 0.0 0 0 304.58 178.01
  Q 309.46 192.73 310.51 208.51
  Q 310.75 212.14 311.44 215.07
  Q 311.74 216.36 313.00 215.98
  L 326.72 211.82
  Q 328.59 211.25 327.73 209.50
  C 322.66 199.24 314.35 184.69 305.34 177.48
  Z
  M 162.53 206.12
  Q 163.97 207.18 164.56 206.11
  Q 172.68 191.44 184.01 179.05
  Q 184.46 178.55 183.79 178.57
  C 168.08 178.86 165.49 193.02 162.09 204.81
  A 1.20 1.20 0.0 0 0 162.53 206.12
  Z
  M 337.4063 184.7548
  A 3.79 0.62 49.8 0 0 335.4336 181.4598
  A 3.79 0.62 49.8 0 0 332.5137 178.9652
  A 3.79 0.62 49.8 0 0 334.4864 182.2602
  A 3.79 0.62 49.8 0 0 337.4063 184.7548
  Z
  M 159.42 203.95
  A 1.19 1.19 0.0 0 0 161.34 203.37
  Q 164.11 193.45 168.71 184.26
  A 0.33 0.33 0.0 0 0 168.32 183.79
  C 160.31 186.20 149.94 195.79 159.42 203.95
  Z
  M 343.4436 194.4009
  A 2.51 0.53 56.0 0 0 342.4794 192.0236
  A 2.51 0.53 56.0 0 0 340.6364 190.2391
  A 2.51 0.53 56.0 0 0 341.6006 192.6164
  A 2.51 0.53 56.0 0 0 343.4436 194.4009
  Z
  M 157.90 203.90
  Q 155.78 201.33 154.32 198.47
  A 0.47 0.47 0.0 0 0 153.49 198.46
  C 146.66 211.02 140.46 228.54 140.75 243.02
  A 0.45 0.45 0.0 0 0 141.54 243.30
  Q 146.17 237.76 152.82 234.88
  A 1.61 1.57 1.9 0 0 153.59 234.18
  C 157.49 227.20 159.25 214.93 160.26 207.50
  C 160.53 205.45 158.76 204.95 157.90 203.90
  Z
  M 334.69 223.81
  C 336.05 230.18 341.61 233.52 347.36 235.12
  A 0.63 0.63 0.0 0 0 348.15 234.50
  Q 347.83 219.24 343.34 204.65
  A 0.81 0.80 60.2 0 0 342.03 204.29
  Q 337.79 208.15 332.00 210.84
  Q 329.85 211.84 331.01 214.01
  Q 333.67 218.99 334.69 223.81
  Z
  M 163.23 207.82
  L 161.93 207.42
  A 0.42 0.42 0.0 0 0 161.40 207.70
  L 161.35 207.86
  A 4.77 0.92 -72.9 0 0 160.83 212.69
  L 161.17 212.79
  A 4.77 0.92 -72.9 0 0 163.46 208.51
  L 163.51 208.34
  A 0.42 0.42 0.0 0 0 163.23 207.82
  Z
  M 195.78 218.86
  Q 180.17 216.07 165.79 209.47
  A 0.96 0.95 27.1 0 0 164.56 209.86
  Q 161.32 215.49 159.36 221.87
  C 158.48 224.72 158.74 227.69 158.75 230.64
  A 0.94 0.94 0.0 0 0 160.01 231.52
  Q 177.07 225.34 195.02 222.69
  A 0.75 0.74 4.4 0 0 195.62 222.18
  L 196.37 219.85
  A 0.77 0.77 0.0 0 0 195.78 218.86
  Z
  M 198.40 217.49
  A 0.43 0.43 0.0 0 0 198.75 218.05
  L 200.65 218.32
  A 0.43 0.43 0.0 0 0 201.14 217.88
  L 200.96 212.28
  A 0.43 0.43 0.0 0 0 200.12 212.16
  L 198.40 217.49
  Z
  M 313.70 217.13
  C 310.91 218.01 310.78 221.61 311.78 223.78
  A 0.97 0.96 -7.2 0 0 312.48 224.32
  Q 323.83 226.38 334.81 229.97
  A 0.63 0.63 0.0 0 0 335.60 229.15
  L 329.51 212.98
  A 0.75 0.74 71.0 0 0 328.60 212.53
  Q 321.00 214.81 313.70 217.13
  Z
  M 309.71 223.62
  A 0.48 0.48 0.0 0 0 310.26 223.14
  L 310.19 218.54
  A 0.48 0.48 0.0 0 0 309.62 218.07
  L 295.59 220.59
  A 0.48 0.48 0.0 0 0 295.60 221.54
  L 309.71 223.62
  Z
  M 200.5131 220.4871
  A 0.88 0.88 0.0 0 0 199.6675 219.5740
  L 198.4684 219.5279
  A 0.88 0.88 0.0 0 0 197.5553 220.3735
  L 197.5269 221.1129
  A 0.88 0.88 0.0 0 0 198.3725 222.0260
  L 199.5716 222.0721
  A 0.88 0.88 0.0 0 0 200.4847 221.2265
  L 200.5131 220.4871
  Z
  M 242.49 221.76
  L 242.49 220.46
  A 0.42 0.42 0.0 0 0 242.06 220.04
  L 241.95 220.04
  A 12.65 1.00 -0.3 0 0 229.31 221.10
  L 229.31 221.24
  A 12.65 1.00 -0.3 0 0 241.97 222.18
  L 242.08 222.18
  A 0.42 0.42 0.0 0 0 242.49 221.76
  Z
  M 257.21 221.17
  A 1.14 1.14 0.0 0 0 256.07 220.03
  L 244.97 220.03
  A 1.14 1.14 0.0 0 0 243.83 221.17
  L 243.83 221.25
  A 1.14 1.14 0.0 0 0 244.97 222.39
  L 256.07 222.39
  A 1.14 1.14 0.0 0 0 257.21 221.25
  L 257.21 221.17
  Z
  M 258.75 220.55
  L 258.75 221.89
  A 0.30 0.30 0.0 0 0 259.04 222.19
  L 259.22 222.19
  A 11.70 0.84 0.4 0 0 270.93 221.43
  L 270.93 221.17
  A 11.70 0.84 0.4 0 0 259.24 220.25
  L 259.06 220.25
  A 0.30 0.30 0.0 0 0 258.75 220.55
  Z
  M 299.53 280.28
  Q 300.41 280.69 301.38 280.80
  A 1.22 1.21 -6.3 0 0 302.67 279.19
  Q 301.76 276.56 299.53 278.55
  Q 298.55 279.41 299.34 280.15
  A 0.69 0.57 -5.3 0 0 299.53 280.28
  Z
  M 301.10 281.88
  L 299.58 281.68
  A 0.46 0.46 0.0 0 0 299.06 282.07
  L 299.04 282.19
  A 5.92 1.10 -82.4 0 0 299.35 288.20
  L 299.61 288.24
  A 5.92 1.10 -82.4 0 0 301.48 282.52
  L 301.50 282.40
  A 0.46 0.46 0.0 0 0 301.10 281.88
  Z
  M 194.79 338.34
  C 196.47 336.60 197.10 335.48 199.35 334.19
  Q 199.82 333.92 199.69 333.40
  C 198.54 328.72 196.01 325.91 191.09 324.89
  Q 180.10 322.62 169.94 318.57
  A 0.60 0.59 -9.7 0 0 169.27 319.51
  Q 179.43 331.10 192.87 338.63
  A 1.60 1.60 0.0 0 0 194.79 338.34
  Z
  M 174.11 327.64
  Q 182.23 337.05 192.87 343.51
  Q 193.44 343.86 193.48 343.19
  C 193.57 341.58 193.16 340.62 191.72 339.69
  Q 182.33 333.65 173.92 325.83
  A 0.51 0.50 24.8 0 0 173.07 326.14
  Q 173.00 326.84 173.63 327.23
  Q 173.90 327.40 174.11 327.64
  Z
  M 199.02 327.83
  C 203.31 333.97 206.14 331.18 211.82 329.56
  A 0.49 0.49 0.0 0 0 211.76 328.61
  L 199.64 326.83
  A 0.64 0.64 0.0 0 0 199.02 327.83
  Z
  M 254.53 327.04
  L 254.48 328.62
  A 0.45 0.45 0.0 0 0 254.91 329.09
  L 255.01 329.09
  A 13.19 1.16 1.9 0 0 268.23 328.37
  L 268.24 328.21
  A 13.19 1.16 1.9 0 0 255.09 326.61
  L 254.99 326.61
  A 0.45 0.45 0.0 0 0 254.53 327.04
  Z
  M 231.85 328.95
  Q 236.61 329.00 241.35 329.23
  A 0.65 0.65 0.0 0 0 242.01 328.70
  Q 242.31 327.05 239.70 327.05
  Q 239.23 327.05 238.77 327.11
  L 233.64 327.67
  Q 233.16 327.72 232.78 328.03
  Q 231.96 328.70 230.66 328.47
  Q 229.70 328.30 230.52 328.83
  Q 231.08 329.19 231.69 328.97
  A 0.36 0.31 -48.6 0 1 231.85 328.95
  Z
  M 252.8466 327.5751
  A 0.51 0.51 0.0 0 0 252.3429 327.0589
  L 244.3435 326.9612
  A 0.51 0.51 0.0 0 0 243.8273 327.4649
  L 243.8134 328.6049
  A 0.51 0.51 0.0 0 0 244.3171 329.1211
  L 252.3165 329.2188
  A 0.51 0.51 0.0 0 0 252.8327 328.7151
  L 252.8466 327.5751
  Z
  M 226.80 331.50
  C 224.59 327.40 209.72 330.62 206.22 332.68
  A 1.07 1.07 0.0 0 0 206.09 334.43
  Q 221.11 346.64 239.44 353.06
  Q 241.50 353.79 243.42 354.04
  A 0.58 0.57 69.4 0 0 243.87 353.04
  Q 233.36 343.66 226.80 331.50
  Z
  M 251.75 354.52
  C 262.33 349.06 271.62 340.39 278.21 330.58
  A 0.55 0.55 0.0 0 0 277.72 329.73
  L 254.53 330.71
  A 0.79 0.79 0.0 0 0 253.78 331.44
  Q 252.98 342.70 250.74 353.75
  A 0.71 0.70 82.2 0 0 251.75 354.52
  Z
  M 241.63 330.51
  L 229.06 330.49
  Q 227.78 330.49 228.41 331.60
  Q 234.15 341.78 242.42 350.07
  A 0.73 0.73 0.0 0 0 243.67 349.50
  L 242.43 331.25
  A 0.80 0.79 -1.9 0 0 241.63 330.51
  Z
  M 250.76 330.58
  L 245.14 330.54
  A 1.43 1.43 0.0 0 0 243.70 331.96
  L 243.70 332.12
  A 22.31 4.19 -89.6 0 0 247.74 354.46
  L 247.84 354.46
  A 22.31 4.19 -89.6 0 0 252.18 332.18
  L 252.18 332.02
  A 1.43 1.43 0.0 0 0 250.76 330.58
  Z
  M 202.40 334.91
  C 205.06 340.16 209.70 347.70 215.68 349.58
  Q 224.94 352.48 235.87 354.22
  A 0.55 0.54 59.6 0 0 236.14 353.17
  Q 218.13 346.47 203.54 334.02
  A 0.74 0.74 0.0 0 0 202.40 334.91
  Z
  M 196.51 337.91
  Q 195.68 338.56 195.47 339.26
  Q 195.06 340.63 196.36 341.23
  L 206.93 346.14
  A 0.49 0.49 0.0 0 0 207.54 345.42
  L 200.94 335.84
  A 0.88 0.88 0.0 0 0 200.03 335.47
  C 198.42 335.81 197.66 336.99 196.51 337.91
  Z
  M 214.01 351.01
  L 195.75 341.79
  A 0.14 0.14 0.0 0 0 195.56 341.85
  L 195.56 341.85
  A 10.26 2.98 26.8 0 0 203.38 349.13
  L 203.57 349.23
  A 10.26 2.98 26.8 0 0 214.08 351.20
  L 214.08 351.20
  A 0.14 0.14 0.0 0 0 214.01 351.01
  Z
  M 298.4171 347.8962
  A 8.07 0.71 -19.5 0 0 290.5730 349.9207
  A 8.07 0.71 -19.5 0 0 283.2029 353.2838
  A 8.07 0.71 -19.5 0 0 291.0470 351.2593
  A 8.07 0.71 -19.5 0 0 298.4171 347.8962
  Z
  M 216.72 352.07
  Q 220.53 354.75 225.21 354.37
  Q 225.71 354.33 226.14 354.57
  Q 226.69 354.88 227.37 354.73
  Q 228.22 354.54 227.39 354.27
  Q 222.26 352.56 216.96 351.51
  Q 215.52 351.23 216.72 352.07
  Z
  M 249.84 359.98
  Q 251.85 360.52 253.77 359.67
  Q 254.27 359.45 253.86 359.10
  Q 251.98 357.43 249.77 358.21
  A 0.93 0.93 0.0 0 0 249.84 359.98
  Z"
/>
<path fill="#000000" d="
  M 293.28 230.51
  L 294.51 230.48
  L 295.70 237.30
  A 0.53 0.53 0.0 0 0 296.22 237.75
  L 304.88 237.76
  A 0.68 0.67 0.4 0 1 305.56 238.44
  L 305.47 247.52
  A 1.24 1.24 0.0 0 1 304.23 248.75
  L 297.80 248.75
  Q 297.22 248.75 297.27 249.33
  L 297.94 257.47
  Q 297.64 258.46 297.21 258.31
  L 296.46 249.58
  A 1.09 1.08 87.4 0 0 295.38 248.59
  L 267.16 248.46
  A 0.64 0.63 88.6 0 1 266.53 247.85
  L 266.18 239.07
  A 1.26 1.26 0.0 0 1 267.44 237.75
  L 293.70 237.75
  A 0.95 0.94 83.8 0 0 294.62 236.60
  L 293.28 230.51
  Z"
/>
<path fill="#000000" d="
  M 273.25 278.17
  L 264.12 277.95
  Q 263.34 277.93 263.38 278.71
  L 263.43 279.56
  Q 263.47 280.22 264.13 280.26
  Q 265.60 280.35 266.99 279.78
  Q 266.72 280.17 266.75 280.47
  Q 265.62 280.84 264.86 280.76
  A 1.48 1.48 0.0 0 0 263.21 282.25
  L 263.47 301.37
  Q 263.49 303.00 261.86 303.04
  L 255.68 303.19
  Q 255.43 303.31 254.99 303.23
  L 251.75 302.85
  Q 251.21 302.78 250.89 302.33
  L 221.92 260.74
  Q 221.00 259.42 221.00 261.03
  L 221.00 277.46
  A 1.08 1.08 0.0 0 0 222.31 278.52
  Q 223.53 278.26 224.42 278.92
  Q 225.27 279.56 224.21 279.56
  L 221.63 279.56
  A 0.62 0.62 0.0 0 0 221.01 280.18
  L 221.00 286.57
  A 0.52 0.52 0.0 0 1 220.49 287.08
  L 210.74 287.30
  A 0.42 0.41 -11.4 0 0 210.36 287.86
  Q 211.11 289.86 211.69 291.69
  Q 217.10 308.78 224.54 324.90
  Q 223.94 325.74 223.78 326.53
  Q 214.81 308.94 210.28 290.00
  C 209.74 287.75 208.04 285.75 208.39 282.74
  A 2.07 2.07 0.0 0 0 205.98 280.46
  L 190.41 283.23
  A 0.94 0.93 84.0 0 0 189.64 284.19
  L 189.87 290.32
  A 0.70 0.69 -0.8 0 0 190.57 290.99
  L 198.00 291.00
  A 0.50 0.50 0.0 0 1 198.50 291.50
  L 198.50 302.14
  A 0.89 0.89 0.0 0 1 197.61 303.03
  L 179.48 303.00
  A 0.85 0.82 22.4 0 0 178.90 303.23
  Q 178.43 303.66 177.94 303.26
  Q 177.64 303.01 177.25 303.01
  L 168.45 302.98
  A 0.69 0.69 0.0 0 1 167.77 302.29
  C 167.77 298.98 167.26 295.08 167.65 292.02
  Q 167.74 291.28 167.02 290.69
  L 166.63 290.29
  Q 167.33 290.31 167.43 289.44
  Q 167.86 285.82 167.13 280.78
  Q 167.06 280.29 167.39 279.91
  Q 167.82 279.43 167.80 279.00
  Q 167.63 275.32 167.44 271.63
  Q 167.42 271.20 167.21 270.83
  Q 166.82 270.12 167.45 269.51
  Q 167.74 269.22 167.74 268.81
  L 167.64 238.56
  A 0.80 0.80 0.0 0 1 168.44 237.75
  L 191.77 237.75
  A 0.68 0.68 0.0 0 0 192.44 237.18
  L 193.21 232.68
  L 194.20 233.52
  L 193.41 236.68
  A 0.86 0.86 0.0 0 0 194.25 237.75
  L 197.88 237.75
  Q 198.50 237.75 198.50 238.38
  L 198.50 248.62
  Q 198.50 249.25 197.87 249.25
  L 192.16 249.25
  A 1.18 1.17 -87.9 0 0 190.99 250.34
  L 190.00 263.60
  A 0.60 0.60 0.0 0 0 190.60 264.25
  L 203.63 264.25
  A 0.78 0.78 0.0 0 0 204.40 263.38
  L 201.27 235.73
  Q 201.61 236.78 202.42 236.50
  L 205.16 263.32
  Q 205.21 263.83 205.57 264.19
  L 205.84 264.47
  Q 206.24 264.87 206.28 265.43
  Q 206.61 269.97 206.93 274.50
  C 206.98 275.26 207.42 275.87 207.91 276.30
  A 0.51 0.51 0.0 0 0 208.75 275.92
  L 208.75 238.63
  A 0.88 0.88 0.0 0 1 209.63 237.75
  L 220.20 237.75
  A 0.99 0.97 -17.3 0 1 221.00 238.16
  L 247.97 276.66
  A 0.98 0.97 -14.3 0 0 248.65 277.06
  Q 249.64 277.16 249.41 278.01
  A 0.97 0.94 50.3 0 0 249.38 278.42
  Q 249.53 279.51 250.32 279.86
  A 0.51 0.50 12.4 0 0 251.03 279.41
  L 251.35 238.71
  A 0.95 0.94 -0.3 0 1 252.29 237.77
  L 256.75 237.71
  A 0.72 0.72 0.0 0 0 257.46 237.03
  Q 257.60 234.42 257.50 232.03
  Q 257.47 231.43 257.86 231.21
  A 0.42 0.42 0.0 0 1 258.49 231.57
  L 258.50 237.25
  A 0.50 0.50 0.0 0 0 259.00 237.74
  L 262.85 237.76
  A 0.66 0.65 0.4 0 1 263.50 238.41
  L 263.50 275.86
  Q 263.50 277.21 264.86 277.25
  L 272.45 277.45
  A 0.45 0.43 -18.1 0 1 272.80 277.62
  L 273.25 278.17
  Z
  M 189.8713 249.6911
  A 0.26 0.26 0.0 0 0 189.6210 249.4218
  L 180.5272 249.0883
  A 0.26 0.26 0.0 0 0 180.2578 249.3386
  L 179.7287 263.7689
  A 0.26 0.26 0.0 0 0 179.9790 264.0382
  L 189.0728 264.3717
  A 0.26 0.26 0.0 0 0 189.3422 264.1214
  L 189.8713 249.6911
  Z
  M 199.01 277.16
  L 204.95 277.55
  Q 205.41 277.58 205.86 277.43
  L 206.70 277.16
  A 0.63 0.63 0.0 0 0 206.54 275.93
  C 201.20 275.60 196.66 277.20 190.81 276.24
  A 1.37 1.34 33.7 0 0 189.90 276.41
  Q 188.99 276.96 188.20 276.33
  A 1.56 1.49 63.1 0 0 187.26 276.00
  L 180.75 276.00
  Q 180.00 276.00 180.00 276.75
  L 180.00 284.48
  A 0.58 0.58 0.0 0 0 180.74 285.04
  L 187.39 283.14
  Q 187.95 282.98 188.17 282.43
  L 188.75 281.00
  Q 188.89 280.63 189.04 280.99
  Q 189.77 282.75 192.31 282.09
  Q 194.95 281.40 204.07 280.16
  Q 204.92 280.04 205.18 279.36
  A 0.81 0.81 0.0 0 0 204.52 278.27
  L 198.97 277.62
  A 0.23 0.23 0.0 0 1 199.01 277.16
  Z
  M 181.03 291.10
  L 188.39 290.90
  A 0.93 0.93 0.0 0 0 189.30 289.95
  L 189.23 287.30
  A 4.46 3.38 -1.5 0 0 184.68 284.04
  L 184.38 284.05
  A 4.46 3.38 -1.5 0 0 180.01 287.54
  L 180.08 290.19
  A 0.93 0.93 0.0 0 0 181.03 291.10
  Z"
/>
<path fill="#000000" d="
  M 338.53 236.71
  Q 338.74 237.76 339.44 237.81
  Q 343.63 238.11 348.86 238.47
  Q 349.81 240.26 350.79 239.40
  Q 351.09 239.14 351.38 239.40
  Q 353.60 241.40 356.92 242.09
  Q 357.82 243.18 358.63 242.72
  Q 358.14 243.57 359.77 243.51
  Q 359.84 245.24 360.52 245.97
  C 375.16 261.64 373.37 287.42 354.58 298.88
  C 352.63 300.06 349.68 300.88 347.36 302.18
  Q 346.94 302.41 346.72 302.84
  L 343.86 308.62
  L 343.61 308.23
  Q 343.40 307.89 343.05 308.09
  Q 342.78 308.23 342.52 308.24
  L 344.38 303.52
  A 0.76 0.75 -84.4 0 0 343.55 302.50
  Q 340.48 303.07 337.36 302.76
  Q 336.94 302.72 336.58 302.94
  L 336.11 303.22
  Q 335.79 303.40 335.49 303.21
  Q 332.91 301.62 329.44 302.21
  Q 329.13 302.17 329.19 301.67
  Q 316.10 296.92 310.34 284.28
  Q 310.11 283.78 309.57 283.67
  L 303.20 282.36
  Q 304.25 281.68 303.87 281.58
  L 308.65 282.54
  Q 309.17 282.64 309.18 282.11
  C 309.23 279.61 309.07 275.98 305.49 277.10
  L 305.46 276.23
  Q 306.88 276.52 307.69 275.98
  Q 308.15 275.67 308.09 275.13
  C 305.89 256.99 316.87 238.12 336.63 237.96
  Q 337.03 237.95 337.30 237.81
  Q 337.88 237.48 337.61 237.11
  L 338.53 236.71
  Z
  M 347.74 252.17
  L 346.30 263.55
  A 0.61 0.60 77.6 0 0 347.22 264.14
  L 354.67 259.44
  A 0.90 0.89 -30.6 0 0 354.98 258.26
  Q 352.87 254.37 349.23 251.90
  A 0.89 0.89 0.0 0 0 348.28 251.86
  L 347.74 252.17
  C 347.69 250.20 343.65 249.57 342.01 249.28
  Q 340.83 249.08 341.00 250.27
  Q 341.91 256.60 342.03 263.24
  Q 342.04 263.62 341.67 263.72
  Q 341.39 263.80 341.37 263.50
  L 340.42 250.05
  A 1.14 1.13 -1.1 0 0 339.32 249.00
  C 325.98 248.62 318.79 260.69 320.01 272.75
  A 0.61 0.61 0.0 0 0 320.78 273.28
  L 332.33 270.26
  Q 332.88 270.12 333.02 269.57
  Q 334.19 265.03 339.00 264.56
  Q 341.65 264.30 342.89 265.73
  A 1.18 1.18 0.0 0 0 344.93 265.21
  L 347.74 252.17
  Z
  M 345.68 266.22
  A 2.10 2.08 68.7 0 0 344.76 268.34
  Q 345.43 272.18 342.94 275.14
  Q 342.65 275.49 342.57 275.93
  L 339.69 290.61
  A 0.73 0.73 0.0 0 0 340.47 291.48
  C 352.68 290.36 355.99 282.22 357.63 271.80
  Q 358.55 265.93 356.01 260.22
  Q 355.78 259.71 355.30 260.01
  L 345.68 266.22
  Z
  M 320.24 275.05
  C 321.51 283.06 326.54 288.92 334.61 290.85
  Q 335.12 290.97 335.37 290.51
  Q 338.67 284.58 340.55 278.04
  Q 340.66 277.65 340.98 277.41
  Q 341.26 277.20 341.26 276.84
  A 0.63 0.63 0.0 0 0 340.56 276.21
  Q 334.68 276.94 333.06 271.51
  A 0.63 0.63 0.0 0 0 332.30 271.08
  L 320.90 274.04
  Q 320.11 274.25 320.24 275.05
  Z
  M 338.05 291.46
  A 0.64 0.64 0.0 0 0 338.88 290.93
  L 339.32 287.74
  A 0.53 0.53 0.0 0 0 338.34 287.40
  L 336.65 290.24
  Q 336.25 290.90 336.99 291.13
  L 338.05 291.46
  Z"
/>
<path fill="#000000" d="
  M 89.75 277.17
  L 89.75 289.83
  A 1.17 1.17 0.0 0 0 90.92 291.00
  L 106.88 291.00
  A 1.17 1.17 0.0 0 1 108.05 292.14
  L 108.27 301.80
  A 1.17 1.17 0.0 0 1 107.10 303.00
  L 78.44 303.00
  A 1.17 1.17 0.0 0 1 77.27 301.83
  L 77.29 238.92
  A 1.17 1.17 0.0 0 1 78.46 237.75
  L 106.83 237.75
  A 1.17 1.17 0.0 0 1 108.00 238.92
  L 107.99 247.76
  A 1.17 1.17 0.0 0 1 106.85 248.93
  L 90.89 249.29
  A 1.17 1.17 0.0 0 0 89.75 250.46
  L 89.75 263.05
  A 1.17 1.17 0.0 0 0 90.92 264.22
  L 115.04 264.32
  A 1.17 1.17 0.0 0 1 116.20 265.48
  L 116.24 274.83
  A 1.17 1.17 0.0 0 1 115.07 276.00
  L 90.92 276.00
  A 1.17 1.17 0.0 0 0 89.75 277.17
  Z"
/>
<path fill="#000000" d="
  M 139.20 248.16
  Q 139.59 248.53 140.47 248.39
  Q 140.05 256.95 148.25 261.01
  A 0.40 0.40 0.0 0 0 148.80 260.79
  Q 149.80 257.95 150.61 255.04
  C 151.50 251.87 151.25 248.17 151.93 244.68
  Q 152.42 245.08 153.04 245.02
  L 152.35 249.50
  Q 152.27 250.00 152.78 250.00
  L 158.01 250.00
  A 0.65 0.64 86.8 0 0 158.65 249.28
  L 157.76 241.23
  Q 158.17 241.92 158.77 241.76
  L 159.40 248.81
  A 1.30 1.28 87.3 0 0 160.68 249.99
  L 164.28 250.01
  A 0.44 0.44 0.0 0 1 164.68 250.60
  L 158.84 266.08
  A 0.74 0.73 26.4 0 0 159.14 266.96
  Q 160.68 267.92 162.26 267.16
  Q 162.58 267.01 162.78 267.30
  L 163.30 268.09
  Q 163.60 268.54 164.09 268.79
  L 165.82 269.67
  A 0.19 0.19 0.0 0 1 165.67 270.02
  L 165.03 269.78
  A 0.75 0.75 0.0 0 0 164.05 270.70
  L 165.40 275.16
  A 0.28 0.28 0.0 0 1 164.87 275.33
  C 163.65 272.06 163.31 268.25 159.02 267.66
  A 1.18 1.17 -75.9 0 0 157.77 268.42
  C 155.97 273.31 152.90 279.11 152.69 284.26
  Q 152.22 284.15 151.99 284.47
  Q 149.37 288.24 149.87 292.10
  Q 148.59 292.72 148.37 293.92
  L 144.65 302.28
  A 0.79 0.78 46.5 0 1 143.20 302.24
  L 119.09 239.00
  A 0.70 0.69 79.2 0 1 119.72 238.06
  L 129.98 237.82
  A 1.36 1.36 0.0 0 1 131.29 238.72
  L 139.24 260.66
  Q 139.42 261.14 139.90 260.99
  L 140.25 260.88
  A 0.37 0.36 -17.2 0 0 140.49 260.43
  Q 138.84 254.61 139.20 248.16
  Z
  M 147.68 261.75
  Q 144.01 259.63 141.43 256.30
  A 0.37 0.37 0.0 0 0 140.77 256.53
  Q 140.87 264.73 143.60 272.42
  A 0.55 0.55 0.0 0 0 144.64 272.42
  L 148.05 262.74
  A 0.84 0.83 -65.7 0 0 147.68 261.75
  Z"
/>
<path fill="#000000" d="
  M 386.49 260.25
  L 386.19 260.25
  A 0.19 0.19 0.0 0 0 386.00 260.44
  L 386.00 286.81
  A 0.19 0.19 0.0 0 1 385.81 287.00
  L 373.81 287.00
  A 0.19 0.19 0.0 0 1 373.62 286.81
  L 373.75 237.94
  A 0.19 0.19 0.0 0 1 373.94 237.75
  L 385.45 237.75
  A 0.19 0.19 0.0 0 1 385.61 237.83
  L 415.90 281.00
  A 0.19 0.19 0.0 0 0 416.25 280.89
  L 416.25 238.00
  A 0.19 0.19 0.0 0 1 416.44 237.81
  L 428.06 237.79
  A 0.19 0.19 0.0 0 1 428.25 237.98
  L 428.25 302.81
  A 0.19 0.19 0.0 0 1 428.06 303.00
  L 416.60 303.00
  A 0.19 0.19 0.0 0 1 416.44 302.92
  L 386.65 260.33
  A 0.19 0.19 0.0 0 0 386.49 260.25
  Z"
/>
<path fill="#000000" d="
  M 292.24 278.46
  Q 292.71 278.38 292.07 280.30
  L 292.05 301.92
  A 1.09 1.08 0.0 0 1 290.96 303.00
  L 281.00 303.00
  A 1.00 1.00 0.0 0 1 280.00 302.00
  L 280.00 281.21
  Q 280.00 280.75 279.70 280.39
  L 279.34 279.97
  Q 279.48 277.92 279.87 278.46
  L 279.97 262.50
  A 0.99 0.99 0.0 0 1 280.96 261.52
  L 291.46 261.46
  A 0.58 0.58 0.0 0 1 292.04 262.03
  L 292.24 278.46
  Z"
/>
<path fill="#5f5d5f" d="
  M 279.87 278.46
  Q 279.48 277.92 279.34 279.97
  L 266.75 280.47
  Q 266.72 280.17 266.99 279.78
  Q 269.90 279.53 272.74 278.96
  Q 273.33 278.84 273.25 278.17
  L 279.87 278.46
  Z"
/>
<path fill="#494742" fill-opacity="0.765" d="
  M 329.19 301.67
  Q 329.13 302.17 329.44 302.21
  Q 329.62 302.96 329.46 303.20
  Q 323.81 312.06 316.61 320.71
  A 0.55 0.55 0.0 0 0 317.19 321.58
  L 326.11 318.84
  Q 326.49 319.62 326.79 320.42
  Q 327.09 321.22 327.57 321.11
  Q 328.03 321.00 328.73 320.47
  L 324.06 327.79
  Q 323.74 327.12 322.89 326.86
  Q 325.13 324.39 326.19 321.26
  A 0.40 0.40 0.0 0 0 325.78 320.73
  C 315.64 321.64 309.09 327.26 302.14 334.03
  Q 301.40 334.76 302.06 335.55
  L 306.83 341.24
  Q 305.23 341.08 304.39 342.55
  C 304.59 339.22 301.34 334.33 297.67 337.17
  C 293.06 340.75 285.93 343.87 281.57 349.21
  Q 281.53 347.78 279.25 349.64
  L 279.62 348.75
  Q 279.95 347.93 279.13 348.26
  L 271.23 351.48
  Q 271.61 350.62 271.47 349.69
  C 281.52 346.59 286.78 342.34 288.88 331.99
  Q 291.44 333.17 291.54 330.17
  Q 295.15 332.68 299.42 333.79
  Q 300.00 333.94 300.45 333.54
  L 309.17 325.93
  A 0.45 0.45 0.0 0 0 308.79 325.14
  L 292.26 328.22
  Q 292.65 327.71 292.49 326.97
  Q 292.38 326.48 291.90 326.33
  Q 291.43 326.18 291.30 326.02
  L 295.85 306.42
  Q 296.38 306.75 296.86 306.78
  Q 295.69 316.19 293.04 325.62
  Q 292.87 326.21 293.48 326.17
  C 298.23 325.83 310.42 324.80 313.66 321.34
  Q 322.19 312.25 329.19 301.67
  Z
  M 297.46 334.50
  L 291.84 332.31
  A 0.88 0.87 22.9 0 0 290.72 332.76
  L 286.59 341.83
  A 0.38 0.38 0.0 0 0 287.13 342.32
  Q 292.32 339.26 297.39 335.63
  Q 297.88 335.28 297.75 334.97
  A 0.65 0.09 66.3 0 0 297.46 334.50
  Z"
/>
</svg>
