<svg width="1280" height="720" viewBox="0 0 1280 720" fill="none" xmlns="http://www.w3.org/2000/svg">
<rect width="1280" height="720" fill="#E6E6E6"/>
<rect x="319" y="187" width="642" height="345" rx="15" fill="#B3B3B3"/>
<path d="M367.588 209.781V224H365.693L358.535 213.033V224H356.65V209.781H358.535L365.723 220.777V209.781H367.588ZM370.176 218.834V218.609C370.176 217.848 370.286 217.141 370.508 216.49C370.729 215.833 371.048 215.263 371.465 214.781C371.882 214.293 372.386 213.915 372.979 213.648C373.571 213.375 374.235 213.238 374.971 213.238C375.713 213.238 376.38 213.375 376.973 213.648C377.572 213.915 378.079 214.293 378.496 214.781C378.919 215.263 379.242 215.833 379.463 216.49C379.684 217.141 379.795 217.848 379.795 218.609V218.834C379.795 219.596 379.684 220.302 379.463 220.953C379.242 221.604 378.919 222.174 378.496 222.662C378.079 223.144 377.575 223.521 376.982 223.795C376.396 224.062 375.732 224.195 374.99 224.195C374.248 224.195 373.581 224.062 372.988 223.795C372.396 223.521 371.888 223.144 371.465 222.662C371.048 222.174 370.729 221.604 370.508 220.953C370.286 220.302 370.176 219.596 370.176 218.834ZM371.982 218.609V218.834C371.982 219.361 372.044 219.859 372.168 220.328C372.292 220.79 372.477 221.201 372.725 221.559C372.979 221.917 373.294 222.2 373.672 222.408C374.049 222.61 374.489 222.711 374.99 222.711C375.485 222.711 375.918 222.61 376.289 222.408C376.667 222.2 376.979 221.917 377.227 221.559C377.474 221.201 377.66 220.79 377.783 220.328C377.913 219.859 377.979 219.361 377.979 218.834V218.609C377.979 218.089 377.913 217.597 377.783 217.135C377.66 216.666 377.471 216.253 377.217 215.895C376.969 215.53 376.657 215.243 376.279 215.035C375.908 214.827 375.472 214.723 374.971 214.723C374.476 214.723 374.04 214.827 373.662 215.035C373.291 215.243 372.979 215.53 372.725 215.895C372.477 216.253 372.292 216.666 372.168 217.135C372.044 217.597 371.982 218.089 371.982 218.609ZM383.857 215.533V224H382.041V213.434H383.76L383.857 215.533ZM383.486 218.316L382.646 218.287C382.653 217.564 382.747 216.897 382.93 216.285C383.112 215.667 383.382 215.13 383.74 214.674C384.098 214.218 384.544 213.867 385.078 213.619C385.612 213.365 386.23 213.238 386.934 213.238C387.428 213.238 387.884 213.31 388.301 213.453C388.717 213.59 389.079 213.808 389.385 214.107C389.691 214.407 389.928 214.791 390.098 215.26C390.267 215.729 390.352 216.295 390.352 216.959V224H388.545V217.047C388.545 216.493 388.451 216.051 388.262 215.719C388.079 215.387 387.819 215.146 387.48 214.996C387.142 214.84 386.745 214.762 386.289 214.762C385.755 214.762 385.309 214.856 384.951 215.045C384.593 215.234 384.307 215.494 384.092 215.826C383.877 216.158 383.721 216.539 383.623 216.969C383.532 217.392 383.486 217.841 383.486 218.316ZM390.332 217.32L389.121 217.691C389.128 217.112 389.222 216.555 389.404 216.021C389.593 215.488 389.863 215.012 390.215 214.596C390.573 214.179 391.012 213.85 391.533 213.609C392.054 213.362 392.65 213.238 393.32 213.238C393.887 213.238 394.388 213.313 394.824 213.463C395.267 213.613 395.638 213.844 395.938 214.156C396.243 214.462 396.475 214.856 396.631 215.338C396.787 215.82 396.865 216.393 396.865 217.057V224H395.049V217.037C395.049 216.445 394.954 215.986 394.766 215.66C394.583 215.328 394.323 215.097 393.984 214.967C393.652 214.83 393.255 214.762 392.793 214.762C392.396 214.762 392.044 214.83 391.738 214.967C391.432 215.104 391.175 215.292 390.967 215.533C390.758 215.768 390.599 216.038 390.488 216.344C390.384 216.65 390.332 216.975 390.332 217.32ZM403.984 224.195C403.249 224.195 402.581 224.072 401.982 223.824C401.39 223.57 400.879 223.215 400.449 222.76C400.026 222.304 399.701 221.764 399.473 221.139C399.245 220.514 399.131 219.83 399.131 219.088V218.678C399.131 217.818 399.258 217.053 399.512 216.383C399.766 215.706 400.111 215.133 400.547 214.664C400.983 214.195 401.478 213.84 402.031 213.6C402.585 213.359 403.158 213.238 403.75 213.238C404.505 213.238 405.156 213.368 405.703 213.629C406.257 213.889 406.709 214.254 407.061 214.723C407.412 215.185 407.673 215.732 407.842 216.363C408.011 216.988 408.096 217.672 408.096 218.414V219.225H400.205V217.75H406.289V217.613C406.263 217.145 406.165 216.689 405.996 216.246C405.833 215.803 405.573 215.439 405.215 215.152C404.857 214.866 404.368 214.723 403.75 214.723C403.34 214.723 402.962 214.811 402.617 214.986C402.272 215.156 401.976 215.41 401.729 215.748C401.481 216.087 401.289 216.5 401.152 216.988C401.016 217.477 400.947 218.04 400.947 218.678V219.088C400.947 219.589 401.016 220.061 401.152 220.504C401.296 220.94 401.501 221.324 401.768 221.656C402.041 221.988 402.37 222.249 402.754 222.438C403.145 222.626 403.587 222.721 404.082 222.721C404.72 222.721 405.26 222.59 405.703 222.33C406.146 222.07 406.533 221.721 406.865 221.285L407.959 222.154C407.731 222.499 407.441 222.828 407.09 223.141C406.738 223.453 406.305 223.707 405.791 223.902C405.283 224.098 404.681 224.195 403.984 224.195Z" fill="black"/>
<path d="M361.895 325.424H358.096V323.891H361.895C362.63 323.891 363.226 323.773 363.682 323.539C364.137 323.305 364.469 322.979 364.678 322.562C364.893 322.146 365 321.671 365 321.137C365 320.648 364.893 320.189 364.678 319.76C364.469 319.33 364.137 318.985 363.682 318.725C363.226 318.458 362.63 318.324 361.895 318.324H358.535V331H356.65V316.781H361.895C362.969 316.781 363.877 316.967 364.619 317.338C365.361 317.709 365.924 318.223 366.309 318.881C366.693 319.532 366.885 320.277 366.885 321.117C366.885 322.029 366.693 322.807 366.309 323.451C365.924 324.096 365.361 324.587 364.619 324.926C363.877 325.258 362.969 325.424 361.895 325.424ZM375.107 329.193V323.754C375.107 323.337 375.023 322.976 374.854 322.67C374.691 322.357 374.443 322.117 374.111 321.947C373.779 321.778 373.369 321.693 372.881 321.693C372.425 321.693 372.025 321.771 371.68 321.928C371.341 322.084 371.074 322.289 370.879 322.543C370.69 322.797 370.596 323.07 370.596 323.363H368.789C368.789 322.986 368.887 322.611 369.082 322.24C369.277 321.869 369.557 321.534 369.922 321.234C370.293 320.928 370.736 320.688 371.25 320.512C371.771 320.329 372.35 320.238 372.988 320.238C373.757 320.238 374.434 320.368 375.02 320.629C375.612 320.889 376.074 321.283 376.406 321.811C376.745 322.331 376.914 322.986 376.914 323.773V328.695C376.914 329.047 376.943 329.421 377.002 329.818C377.067 330.215 377.161 330.557 377.285 330.844V331H375.4C375.309 330.792 375.238 330.515 375.186 330.17C375.133 329.818 375.107 329.493 375.107 329.193ZM375.42 324.594L375.439 325.863H373.613C373.099 325.863 372.64 325.906 372.236 325.99C371.833 326.068 371.494 326.189 371.221 326.352C370.947 326.514 370.739 326.719 370.596 326.967C370.452 327.208 370.381 327.491 370.381 327.816C370.381 328.148 370.456 328.451 370.605 328.725C370.755 328.998 370.98 329.216 371.279 329.379C371.585 329.535 371.96 329.613 372.402 329.613C372.956 329.613 373.444 329.496 373.867 329.262C374.29 329.027 374.626 328.741 374.873 328.402C375.127 328.064 375.264 327.735 375.283 327.416L376.055 328.285C376.009 328.559 375.885 328.861 375.684 329.193C375.482 329.525 375.212 329.844 374.873 330.15C374.541 330.45 374.144 330.701 373.682 330.902C373.226 331.098 372.712 331.195 372.139 331.195C371.423 331.195 370.794 331.055 370.254 330.775C369.72 330.495 369.303 330.121 369.004 329.652C368.711 329.177 368.564 328.646 368.564 328.061C368.564 327.494 368.675 326.996 368.896 326.566C369.118 326.13 369.437 325.769 369.854 325.482C370.27 325.189 370.771 324.968 371.357 324.818C371.943 324.669 372.598 324.594 373.32 324.594H375.42ZM385.908 328.197C385.908 327.937 385.85 327.696 385.732 327.475C385.622 327.247 385.391 327.042 385.039 326.859C384.694 326.671 384.173 326.508 383.477 326.371C382.891 326.247 382.36 326.101 381.885 325.932C381.416 325.762 381.016 325.557 380.684 325.316C380.358 325.076 380.107 324.792 379.932 324.467C379.756 324.141 379.668 323.76 379.668 323.324C379.668 322.908 379.759 322.514 379.941 322.143C380.13 321.771 380.394 321.443 380.732 321.156C381.077 320.87 381.491 320.645 381.973 320.482C382.454 320.32 382.992 320.238 383.584 320.238C384.43 320.238 385.153 320.388 385.752 320.688C386.351 320.987 386.81 321.387 387.129 321.889C387.448 322.383 387.607 322.934 387.607 323.539H385.801C385.801 323.246 385.713 322.963 385.537 322.689C385.368 322.41 385.117 322.178 384.785 321.996C384.46 321.814 384.059 321.723 383.584 321.723C383.083 321.723 382.676 321.801 382.363 321.957C382.057 322.107 381.833 322.299 381.689 322.533C381.553 322.768 381.484 323.015 381.484 323.275C381.484 323.471 381.517 323.646 381.582 323.803C381.654 323.952 381.777 324.092 381.953 324.223C382.129 324.346 382.376 324.464 382.695 324.574C383.014 324.685 383.421 324.796 383.916 324.906C384.782 325.102 385.495 325.336 386.055 325.609C386.615 325.883 387.031 326.218 387.305 326.615C387.578 327.012 387.715 327.494 387.715 328.061C387.715 328.523 387.617 328.946 387.422 329.33C387.233 329.714 386.956 330.046 386.592 330.326C386.234 330.6 385.804 330.814 385.303 330.971C384.808 331.12 384.251 331.195 383.633 331.195C382.702 331.195 381.914 331.029 381.27 330.697C380.625 330.365 380.137 329.936 379.805 329.408C379.473 328.881 379.307 328.324 379.307 327.738H381.123C381.149 328.233 381.292 328.627 381.553 328.92C381.813 329.206 382.132 329.411 382.51 329.535C382.887 329.652 383.262 329.711 383.633 329.711C384.128 329.711 384.541 329.646 384.873 329.516C385.212 329.385 385.469 329.206 385.645 328.979C385.82 328.751 385.908 328.49 385.908 328.197ZM396.24 328.197C396.24 327.937 396.182 327.696 396.064 327.475C395.954 327.247 395.723 327.042 395.371 326.859C395.026 326.671 394.505 326.508 393.809 326.371C393.223 326.247 392.692 326.101 392.217 325.932C391.748 325.762 391.348 325.557 391.016 325.316C390.69 325.076 390.439 324.792 390.264 324.467C390.088 324.141 390 323.76 390 323.324C390 322.908 390.091 322.514 390.273 322.143C390.462 321.771 390.726 321.443 391.064 321.156C391.41 320.87 391.823 320.645 392.305 320.482C392.786 320.32 393.324 320.238 393.916 320.238C394.762 320.238 395.485 320.388 396.084 320.688C396.683 320.987 397.142 321.387 397.461 321.889C397.78 322.383 397.939 322.934 397.939 323.539H396.133C396.133 323.246 396.045 322.963 395.869 322.689C395.7 322.41 395.449 322.178 395.117 321.996C394.792 321.814 394.391 321.723 393.916 321.723C393.415 321.723 393.008 321.801 392.695 321.957C392.389 322.107 392.165 322.299 392.021 322.533C391.885 322.768 391.816 323.015 391.816 323.275C391.816 323.471 391.849 323.646 391.914 323.803C391.986 323.952 392.109 324.092 392.285 324.223C392.461 324.346 392.708 324.464 393.027 324.574C393.346 324.685 393.753 324.796 394.248 324.906C395.114 325.102 395.827 325.336 396.387 325.609C396.947 325.883 397.363 326.218 397.637 326.615C397.91 327.012 398.047 327.494 398.047 328.061C398.047 328.523 397.949 328.946 397.754 329.33C397.565 329.714 397.288 330.046 396.924 330.326C396.566 330.6 396.136 330.814 395.635 330.971C395.14 331.12 394.583 331.195 393.965 331.195C393.034 331.195 392.246 331.029 391.602 330.697C390.957 330.365 390.469 329.936 390.137 329.408C389.805 328.881 389.639 328.324 389.639 327.738H391.455C391.481 328.233 391.624 328.627 391.885 328.92C392.145 329.206 392.464 329.411 392.842 329.535C393.219 329.652 393.594 329.711 393.965 329.711C394.46 329.711 394.873 329.646 395.205 329.516C395.544 329.385 395.801 329.206 395.977 328.979C396.152 328.751 396.24 328.49 396.24 328.197ZM403.096 329.125L405.811 320.434H407.002L406.768 322.162L404.004 331H402.842L403.096 329.125ZM401.27 320.434L403.584 329.223L403.75 331H402.529L399.463 320.434H401.27ZM409.6 329.154L411.807 320.434H413.604L410.537 331H409.326L409.6 329.154ZM407.266 320.434L409.922 328.979L410.225 331H409.072L406.23 322.143L405.996 320.434H407.266ZM414.98 325.834V325.609C414.98 324.848 415.091 324.141 415.312 323.49C415.534 322.833 415.853 322.263 416.27 321.781C416.686 321.293 417.191 320.915 417.783 320.648C418.376 320.375 419.04 320.238 419.775 320.238C420.518 320.238 421.185 320.375 421.777 320.648C422.376 320.915 422.884 321.293 423.301 321.781C423.724 322.263 424.046 322.833 424.268 323.49C424.489 324.141 424.6 324.848 424.6 325.609V325.834C424.6 326.596 424.489 327.302 424.268 327.953C424.046 328.604 423.724 329.174 423.301 329.662C422.884 330.144 422.38 330.521 421.787 330.795C421.201 331.062 420.537 331.195 419.795 331.195C419.053 331.195 418.385 331.062 417.793 330.795C417.201 330.521 416.693 330.144 416.27 329.662C415.853 329.174 415.534 328.604 415.312 327.953C415.091 327.302 414.98 326.596 414.98 325.834ZM416.787 325.609V325.834C416.787 326.361 416.849 326.859 416.973 327.328C417.096 327.79 417.282 328.201 417.529 328.559C417.783 328.917 418.099 329.2 418.477 329.408C418.854 329.61 419.294 329.711 419.795 329.711C420.29 329.711 420.723 329.61 421.094 329.408C421.471 329.2 421.784 328.917 422.031 328.559C422.279 328.201 422.464 327.79 422.588 327.328C422.718 326.859 422.783 326.361 422.783 325.834V325.609C422.783 325.089 422.718 324.597 422.588 324.135C422.464 323.666 422.275 323.253 422.021 322.895C421.774 322.53 421.462 322.243 421.084 322.035C420.713 321.827 420.277 321.723 419.775 321.723C419.281 321.723 418.844 321.827 418.467 322.035C418.096 322.243 417.783 322.53 417.529 322.895C417.282 323.253 417.096 323.666 416.973 324.135C416.849 324.597 416.787 325.089 416.787 325.609ZM428.672 322.094V331H426.865V320.434H428.623L428.672 322.094ZM431.973 320.375L431.963 322.055C431.813 322.022 431.67 322.003 431.533 321.996C431.403 321.983 431.253 321.977 431.084 321.977C430.667 321.977 430.299 322.042 429.98 322.172C429.661 322.302 429.391 322.484 429.17 322.719C428.949 322.953 428.773 323.233 428.643 323.559C428.519 323.878 428.438 324.229 428.398 324.613L427.891 324.906C427.891 324.268 427.952 323.669 428.076 323.109C428.206 322.549 428.405 322.055 428.672 321.625C428.939 321.189 429.277 320.85 429.688 320.609C430.104 320.362 430.599 320.238 431.172 320.238C431.302 320.238 431.452 320.255 431.621 320.287C431.79 320.313 431.908 320.342 431.973 320.375ZM440.107 328.949V316H441.924V331H440.264L440.107 328.949ZM432.998 325.834V325.629C432.998 324.822 433.096 324.089 433.291 323.432C433.493 322.768 433.776 322.198 434.141 321.723C434.512 321.247 434.951 320.883 435.459 320.629C435.973 320.368 436.546 320.238 437.178 320.238C437.842 320.238 438.421 320.355 438.916 320.59C439.417 320.818 439.84 321.153 440.186 321.596C440.537 322.032 440.814 322.559 441.016 323.178C441.217 323.796 441.357 324.496 441.436 325.277V326.176C441.364 326.951 441.224 327.647 441.016 328.266C440.814 328.884 440.537 329.411 440.186 329.848C439.84 330.284 439.417 330.619 438.916 330.854C438.415 331.081 437.829 331.195 437.158 331.195C436.54 331.195 435.973 331.062 435.459 330.795C434.951 330.528 434.512 330.154 434.141 329.672C433.776 329.19 433.493 328.624 433.291 327.973C433.096 327.315 432.998 326.602 432.998 325.834ZM434.814 325.629V325.834C434.814 326.361 434.867 326.856 434.971 327.318C435.081 327.781 435.251 328.188 435.479 328.539C435.706 328.891 435.996 329.167 436.348 329.369C436.699 329.564 437.119 329.662 437.607 329.662C438.206 329.662 438.698 329.535 439.082 329.281C439.473 329.027 439.785 328.692 440.02 328.275C440.254 327.859 440.436 327.406 440.566 326.918V324.564C440.488 324.206 440.374 323.861 440.225 323.529C440.081 323.191 439.893 322.891 439.658 322.631C439.43 322.364 439.147 322.152 438.809 321.996C438.477 321.84 438.083 321.762 437.627 321.762C437.132 321.762 436.706 321.866 436.348 322.074C435.996 322.276 435.706 322.556 435.479 322.914C435.251 323.266 435.081 323.676 434.971 324.145C434.867 324.607 434.814 325.102 434.814 325.629Z" fill="black"/>
<rect x="355" y="239" width="570" height="57" rx="15" fill="white"/>
<rect x="355" y="351" width="570" height="57" rx="15" fill="white"/>
<rect x="758" y="439" width="167" height="57" rx="15" fill="#414141"/>
<path d="M825.684 472.467V474H818.154V472.467H825.684ZM818.535 459.781V474H816.65V459.781H818.535ZM824.688 465.895V467.428H818.154V465.895H824.688ZM825.586 459.781V461.324H818.154V459.781H825.586ZM829.541 465.533V474H827.725V463.434H829.443L829.541 465.533ZM829.17 468.316L828.33 468.287C828.337 467.564 828.431 466.897 828.613 466.285C828.796 465.667 829.066 465.13 829.424 464.674C829.782 464.218 830.228 463.867 830.762 463.619C831.296 463.365 831.914 463.238 832.617 463.238C833.112 463.238 833.568 463.31 833.984 463.453C834.401 463.59 834.762 463.808 835.068 464.107C835.374 464.407 835.612 464.791 835.781 465.26C835.951 465.729 836.035 466.295 836.035 466.959V474H834.229V467.047C834.229 466.493 834.134 466.051 833.945 465.719C833.763 465.387 833.503 465.146 833.164 464.996C832.826 464.84 832.428 464.762 831.973 464.762C831.439 464.762 830.993 464.856 830.635 465.045C830.277 465.234 829.99 465.494 829.775 465.826C829.561 466.158 829.404 466.539 829.307 466.969C829.215 467.392 829.17 467.841 829.17 468.316ZM836.016 467.32L834.805 467.691C834.811 467.112 834.906 466.555 835.088 466.021C835.277 465.488 835.547 465.012 835.898 464.596C836.257 464.179 836.696 463.85 837.217 463.609C837.738 463.362 838.333 463.238 839.004 463.238C839.57 463.238 840.072 463.313 840.508 463.463C840.951 463.613 841.322 463.844 841.621 464.156C841.927 464.462 842.158 464.856 842.314 465.338C842.471 465.82 842.549 466.393 842.549 467.057V474H840.732V467.037C840.732 466.445 840.638 465.986 840.449 465.66C840.267 465.328 840.007 465.097 839.668 464.967C839.336 464.83 838.939 464.762 838.477 464.762C838.079 464.762 837.728 464.83 837.422 464.967C837.116 465.104 836.859 465.292 836.65 465.533C836.442 465.768 836.283 466.038 836.172 466.344C836.068 466.65 836.016 466.975 836.016 467.32ZM851.514 472.193V466.754C851.514 466.337 851.429 465.976 851.26 465.67C851.097 465.357 850.85 465.117 850.518 464.947C850.186 464.778 849.775 464.693 849.287 464.693C848.831 464.693 848.431 464.771 848.086 464.928C847.747 465.084 847.48 465.289 847.285 465.543C847.096 465.797 847.002 466.07 847.002 466.363H845.195C845.195 465.986 845.293 465.611 845.488 465.24C845.684 464.869 845.964 464.534 846.328 464.234C846.699 463.928 847.142 463.688 847.656 463.512C848.177 463.329 848.757 463.238 849.395 463.238C850.163 463.238 850.84 463.368 851.426 463.629C852.018 463.889 852.48 464.283 852.812 464.811C853.151 465.331 853.32 465.986 853.32 466.773V471.695C853.32 472.047 853.35 472.421 853.408 472.818C853.473 473.215 853.568 473.557 853.691 473.844V474H851.807C851.715 473.792 851.644 473.515 851.592 473.17C851.54 472.818 851.514 472.493 851.514 472.193ZM851.826 467.594L851.846 468.863H850.02C849.505 468.863 849.046 468.906 848.643 468.99C848.239 469.068 847.9 469.189 847.627 469.352C847.354 469.514 847.145 469.719 847.002 469.967C846.859 470.208 846.787 470.491 846.787 470.816C846.787 471.148 846.862 471.451 847.012 471.725C847.161 471.998 847.386 472.216 847.686 472.379C847.992 472.535 848.366 472.613 848.809 472.613C849.362 472.613 849.85 472.496 850.273 472.262C850.697 472.027 851.032 471.741 851.279 471.402C851.533 471.064 851.67 470.735 851.689 470.416L852.461 471.285C852.415 471.559 852.292 471.861 852.09 472.193C851.888 472.525 851.618 472.844 851.279 473.15C850.947 473.45 850.55 473.701 850.088 473.902C849.632 474.098 849.118 474.195 848.545 474.195C847.829 474.195 847.201 474.055 846.66 473.775C846.126 473.495 845.71 473.121 845.41 472.652C845.117 472.177 844.971 471.646 844.971 471.061C844.971 470.494 845.081 469.996 845.303 469.566C845.524 469.13 845.843 468.769 846.26 468.482C846.676 468.189 847.178 467.968 847.764 467.818C848.35 467.669 849.004 467.594 849.727 467.594H851.826ZM858.125 463.434V474H856.309V463.434H858.125ZM856.172 460.631C856.172 460.338 856.26 460.09 856.436 459.889C856.618 459.687 856.885 459.586 857.236 459.586C857.581 459.586 857.845 459.687 858.027 459.889C858.216 460.09 858.311 460.338 858.311 460.631C858.311 460.911 858.216 461.152 858.027 461.354C857.845 461.549 857.581 461.646 857.236 461.646C856.885 461.646 856.618 461.549 856.436 461.354C856.26 461.152 856.172 460.911 856.172 460.631ZM862.988 459V474H861.172V459H862.988Z" fill="white"/>
<path d="M608.588 459.781V474H606.693L599.535 463.033V474H597.65V459.781H599.535L606.723 470.777V459.781H608.588ZM617.885 472.193V466.754C617.885 466.337 617.8 465.976 617.631 465.67C617.468 465.357 617.221 465.117 616.889 464.947C616.557 464.778 616.146 464.693 615.658 464.693C615.202 464.693 614.802 464.771 614.457 464.928C614.118 465.084 613.852 465.289 613.656 465.543C613.467 465.797 613.373 466.07 613.373 466.363H611.566C611.566 465.986 611.664 465.611 611.859 465.24C612.055 464.869 612.335 464.534 612.699 464.234C613.07 463.928 613.513 463.688 614.027 463.512C614.548 463.329 615.128 463.238 615.766 463.238C616.534 463.238 617.211 463.368 617.797 463.629C618.389 463.889 618.852 464.283 619.184 464.811C619.522 465.331 619.691 465.986 619.691 466.773V471.695C619.691 472.047 619.721 472.421 619.779 472.818C619.844 473.215 619.939 473.557 620.062 473.844V474H618.178C618.087 473.792 618.015 473.515 617.963 473.17C617.911 472.818 617.885 472.493 617.885 472.193ZM618.197 467.594L618.217 468.863H616.391C615.876 468.863 615.417 468.906 615.014 468.99C614.61 469.068 614.271 469.189 613.998 469.352C613.725 469.514 613.516 469.719 613.373 469.967C613.23 470.208 613.158 470.491 613.158 470.816C613.158 471.148 613.233 471.451 613.383 471.725C613.533 471.998 613.757 472.216 614.057 472.379C614.363 472.535 614.737 472.613 615.18 472.613C615.733 472.613 616.221 472.496 616.645 472.262C617.068 472.027 617.403 471.741 617.65 471.402C617.904 471.064 618.041 470.735 618.061 470.416L618.832 471.285C618.786 471.559 618.663 471.861 618.461 472.193C618.259 472.525 617.989 472.844 617.65 473.15C617.318 473.45 616.921 473.701 616.459 473.902C616.003 474.098 615.489 474.195 614.916 474.195C614.2 474.195 613.572 474.055 613.031 473.775C612.497 473.495 612.081 473.121 611.781 472.652C611.488 472.177 611.342 471.646 611.342 471.061C611.342 470.494 611.452 469.996 611.674 469.566C611.895 469.13 612.214 468.769 612.631 468.482C613.048 468.189 613.549 467.968 614.135 467.818C614.721 467.669 615.375 467.594 616.098 467.594H618.197ZM618.207 459.195L619.428 459.303C619.428 459.778 619.333 460.195 619.145 460.553C618.956 460.911 618.702 461.188 618.383 461.383C618.07 461.578 617.715 461.676 617.318 461.676C616.986 461.676 616.713 461.63 616.498 461.539C616.283 461.441 616.091 461.334 615.922 461.217C615.753 461.093 615.574 460.986 615.385 460.895C615.202 460.797 614.975 460.748 614.701 460.748C614.428 460.748 614.197 460.852 614.008 461.061C613.826 461.269 613.734 461.526 613.734 461.832L612.514 461.773C612.514 461.298 612.605 460.882 612.787 460.523C612.976 460.159 613.23 459.876 613.549 459.674C613.868 459.465 614.223 459.361 614.613 459.361C614.893 459.361 615.137 459.41 615.346 459.508C615.561 459.599 615.762 459.706 615.951 459.83C616.14 459.947 616.335 460.055 616.537 460.152C616.739 460.243 616.97 460.289 617.23 460.289C617.504 460.289 617.735 460.185 617.924 459.977C618.113 459.762 618.207 459.501 618.207 459.195ZM622.055 468.834V468.609C622.055 467.848 622.165 467.141 622.387 466.49C622.608 465.833 622.927 465.263 623.344 464.781C623.76 464.293 624.265 463.915 624.857 463.648C625.45 463.375 626.114 463.238 626.85 463.238C627.592 463.238 628.259 463.375 628.852 463.648C629.451 463.915 629.958 464.293 630.375 464.781C630.798 465.263 631.12 465.833 631.342 466.49C631.563 467.141 631.674 467.848 631.674 468.609V468.834C631.674 469.596 631.563 470.302 631.342 470.953C631.12 471.604 630.798 472.174 630.375 472.662C629.958 473.144 629.454 473.521 628.861 473.795C628.275 474.062 627.611 474.195 626.869 474.195C626.127 474.195 625.46 474.062 624.867 473.795C624.275 473.521 623.767 473.144 623.344 472.662C622.927 472.174 622.608 471.604 622.387 470.953C622.165 470.302 622.055 469.596 622.055 468.834ZM623.861 468.609V468.834C623.861 469.361 623.923 469.859 624.047 470.328C624.171 470.79 624.356 471.201 624.604 471.559C624.857 471.917 625.173 472.2 625.551 472.408C625.928 472.61 626.368 472.711 626.869 472.711C627.364 472.711 627.797 472.61 628.168 472.408C628.546 472.2 628.858 471.917 629.105 471.559C629.353 471.201 629.538 470.79 629.662 470.328C629.792 469.859 629.857 469.361 629.857 468.834V468.609C629.857 468.089 629.792 467.597 629.662 467.135C629.538 466.666 629.35 466.253 629.096 465.895C628.848 465.53 628.536 465.243 628.158 465.035C627.787 464.827 627.351 464.723 626.85 464.723C626.355 464.723 625.919 464.827 625.541 465.035C625.17 465.243 624.857 465.53 624.604 465.895C624.356 466.253 624.171 466.666 624.047 467.135C623.923 467.597 623.861 468.089 623.861 468.609ZM643.324 463.434V464.82H637.611V463.434H643.324ZM639.545 460.865H641.352V471.383C641.352 471.741 641.407 472.011 641.518 472.193C641.628 472.376 641.771 472.496 641.947 472.555C642.123 472.613 642.312 472.643 642.514 472.643C642.663 472.643 642.82 472.63 642.982 472.604C643.152 472.571 643.279 472.545 643.363 472.525L643.373 474C643.23 474.046 643.041 474.088 642.807 474.127C642.579 474.173 642.302 474.195 641.977 474.195C641.534 474.195 641.127 474.107 640.756 473.932C640.385 473.756 640.089 473.463 639.867 473.053C639.652 472.636 639.545 472.076 639.545 471.373V460.865ZM649.828 474.195C649.092 474.195 648.425 474.072 647.826 473.824C647.234 473.57 646.723 473.215 646.293 472.76C645.87 472.304 645.544 471.764 645.316 471.139C645.089 470.514 644.975 469.83 644.975 469.088V468.678C644.975 467.818 645.102 467.053 645.355 466.383C645.609 465.706 645.954 465.133 646.391 464.664C646.827 464.195 647.322 463.84 647.875 463.6C648.428 463.359 649.001 463.238 649.594 463.238C650.349 463.238 651 463.368 651.547 463.629C652.1 463.889 652.553 464.254 652.904 464.723C653.256 465.185 653.516 465.732 653.686 466.363C653.855 466.988 653.939 467.672 653.939 468.414V469.225H646.049V467.75H652.133V467.613C652.107 467.145 652.009 466.689 651.84 466.246C651.677 465.803 651.417 465.439 651.059 465.152C650.701 464.866 650.212 464.723 649.594 464.723C649.184 464.723 648.806 464.811 648.461 464.986C648.116 465.156 647.82 465.41 647.572 465.748C647.325 466.087 647.133 466.5 646.996 466.988C646.859 467.477 646.791 468.04 646.791 468.678V469.088C646.791 469.589 646.859 470.061 646.996 470.504C647.139 470.94 647.344 471.324 647.611 471.656C647.885 471.988 648.214 472.249 648.598 472.438C648.988 472.626 649.431 472.721 649.926 472.721C650.564 472.721 651.104 472.59 651.547 472.33C651.99 472.07 652.377 471.721 652.709 471.285L653.803 472.154C653.575 472.499 653.285 472.828 652.934 473.141C652.582 473.453 652.149 473.707 651.635 473.902C651.127 474.098 650.525 474.195 649.828 474.195ZM657.855 465.689V474H656.049V463.434H657.758L657.855 465.689ZM657.426 468.316L656.674 468.287C656.68 467.564 656.788 466.897 656.996 466.285C657.204 465.667 657.497 465.13 657.875 464.674C658.253 464.218 658.702 463.867 659.223 463.619C659.75 463.365 660.333 463.238 660.971 463.238C661.492 463.238 661.96 463.31 662.377 463.453C662.794 463.59 663.148 463.811 663.441 464.117C663.741 464.423 663.969 464.82 664.125 465.309C664.281 465.79 664.359 466.38 664.359 467.076V474H662.543V467.057C662.543 466.503 662.462 466.061 662.299 465.729C662.136 465.39 661.898 465.146 661.586 464.996C661.273 464.84 660.889 464.762 660.434 464.762C659.984 464.762 659.574 464.856 659.203 465.045C658.839 465.234 658.523 465.494 658.256 465.826C657.995 466.158 657.79 466.539 657.641 466.969C657.497 467.392 657.426 467.841 657.426 468.316ZM668.91 459V474H667.104V459H668.91ZM668.48 468.316L667.729 468.287C667.735 467.564 667.842 466.897 668.051 466.285C668.259 465.667 668.552 465.13 668.93 464.674C669.307 464.218 669.757 463.867 670.277 463.619C670.805 463.365 671.387 463.238 672.025 463.238C672.546 463.238 673.015 463.31 673.432 463.453C673.848 463.59 674.203 463.811 674.496 464.117C674.796 464.423 675.023 464.82 675.18 465.309C675.336 465.79 675.414 466.38 675.414 467.076V474H673.598V467.057C673.598 466.503 673.516 466.061 673.354 465.729C673.191 465.39 672.953 465.146 672.641 464.996C672.328 464.84 671.944 464.762 671.488 464.762C671.039 464.762 670.629 464.856 670.258 465.045C669.893 465.234 669.577 465.494 669.311 465.826C669.05 466.158 668.845 466.539 668.695 466.969C668.552 467.392 668.48 467.841 668.48 468.316ZM677.641 468.834V468.609C677.641 467.848 677.751 467.141 677.973 466.49C678.194 465.833 678.513 465.263 678.93 464.781C679.346 464.293 679.851 463.915 680.443 463.648C681.036 463.375 681.7 463.238 682.436 463.238C683.178 463.238 683.845 463.375 684.438 463.648C685.036 463.915 685.544 464.293 685.961 464.781C686.384 465.263 686.706 465.833 686.928 466.49C687.149 467.141 687.26 467.848 687.26 468.609V468.834C687.26 469.596 687.149 470.302 686.928 470.953C686.706 471.604 686.384 472.174 685.961 472.662C685.544 473.144 685.04 473.521 684.447 473.795C683.861 474.062 683.197 474.195 682.455 474.195C681.713 474.195 681.046 474.062 680.453 473.795C679.861 473.521 679.353 473.144 678.93 472.662C678.513 472.174 678.194 471.604 677.973 470.953C677.751 470.302 677.641 469.596 677.641 468.834ZM679.447 468.609V468.834C679.447 469.361 679.509 469.859 679.633 470.328C679.757 470.79 679.942 471.201 680.189 471.559C680.443 471.917 680.759 472.2 681.137 472.408C681.514 472.61 681.954 472.711 682.455 472.711C682.95 472.711 683.383 472.61 683.754 472.408C684.132 472.2 684.444 471.917 684.691 471.559C684.939 471.201 685.124 470.79 685.248 470.328C685.378 469.859 685.443 469.361 685.443 468.834V468.609C685.443 468.089 685.378 467.597 685.248 467.135C685.124 466.666 684.936 466.253 684.682 465.895C684.434 465.53 684.122 465.243 683.744 465.035C683.373 464.827 682.937 464.723 682.436 464.723C681.941 464.723 681.505 464.827 681.127 465.035C680.756 465.243 680.443 465.53 680.189 465.895C679.942 466.253 679.757 466.666 679.633 467.135C679.509 467.597 679.447 468.089 679.447 468.609ZM698.715 472.711C699.145 472.711 699.542 472.623 699.906 472.447C700.271 472.271 700.57 472.031 700.805 471.725C701.039 471.412 701.173 471.057 701.205 470.66H702.924C702.891 471.285 702.68 471.868 702.289 472.408C701.905 472.942 701.4 473.375 700.775 473.707C700.15 474.033 699.464 474.195 698.715 474.195C697.921 474.195 697.227 474.055 696.635 473.775C696.049 473.495 695.561 473.111 695.17 472.623C694.786 472.135 694.496 471.575 694.301 470.943C694.112 470.305 694.018 469.632 694.018 468.922V468.512C694.018 467.802 694.112 467.132 694.301 466.5C694.496 465.862 694.786 465.299 695.17 464.811C695.561 464.322 696.049 463.938 696.635 463.658C697.227 463.378 697.921 463.238 698.715 463.238C699.542 463.238 700.264 463.408 700.883 463.746C701.501 464.078 701.986 464.534 702.338 465.113C702.696 465.686 702.891 466.337 702.924 467.066H701.205C701.173 466.63 701.049 466.236 700.834 465.885C700.626 465.533 700.339 465.253 699.975 465.045C699.617 464.83 699.197 464.723 698.715 464.723C698.161 464.723 697.696 464.833 697.318 465.055C696.947 465.27 696.651 465.562 696.43 465.934C696.215 466.298 696.059 466.705 695.961 467.154C695.87 467.597 695.824 468.049 695.824 468.512V468.922C695.824 469.384 695.87 469.84 695.961 470.289C696.052 470.738 696.205 471.145 696.42 471.51C696.641 471.874 696.938 472.167 697.309 472.389C697.686 472.604 698.155 472.711 698.715 472.711ZM704.477 468.834V468.609C704.477 467.848 704.587 467.141 704.809 466.49C705.03 465.833 705.349 465.263 705.766 464.781C706.182 464.293 706.687 463.915 707.279 463.648C707.872 463.375 708.536 463.238 709.271 463.238C710.014 463.238 710.681 463.375 711.273 463.648C711.872 463.915 712.38 464.293 712.797 464.781C713.22 465.263 713.542 465.833 713.764 466.49C713.985 467.141 714.096 467.848 714.096 468.609V468.834C714.096 469.596 713.985 470.302 713.764 470.953C713.542 471.604 713.22 472.174 712.797 472.662C712.38 473.144 711.876 473.521 711.283 473.795C710.697 474.062 710.033 474.195 709.291 474.195C708.549 474.195 707.882 474.062 707.289 473.795C706.697 473.521 706.189 473.144 705.766 472.662C705.349 472.174 705.03 471.604 704.809 470.953C704.587 470.302 704.477 469.596 704.477 468.834ZM706.283 468.609V468.834C706.283 469.361 706.345 469.859 706.469 470.328C706.592 470.79 706.778 471.201 707.025 471.559C707.279 471.917 707.595 472.2 707.973 472.408C708.35 472.61 708.79 472.711 709.291 472.711C709.786 472.711 710.219 472.61 710.59 472.408C710.967 472.2 711.28 471.917 711.527 471.559C711.775 471.201 711.96 470.79 712.084 470.328C712.214 469.859 712.279 469.361 712.279 468.834V468.609C712.279 468.089 712.214 467.597 712.084 467.135C711.96 466.666 711.771 466.253 711.518 465.895C711.27 465.53 710.958 465.243 710.58 465.035C710.209 464.827 709.773 464.723 709.271 464.723C708.777 464.723 708.34 464.827 707.963 465.035C707.592 465.243 707.279 465.53 707.025 465.895C706.778 466.253 706.592 466.666 706.469 467.135C706.345 467.597 706.283 468.089 706.283 468.609ZM718.168 465.689V474H716.361V463.434H718.07L718.168 465.689ZM717.738 468.316L716.986 468.287C716.993 467.564 717.1 466.897 717.309 466.285C717.517 465.667 717.81 465.13 718.188 464.674C718.565 464.218 719.014 463.867 719.535 463.619C720.062 463.365 720.645 463.238 721.283 463.238C721.804 463.238 722.273 463.31 722.689 463.453C723.106 463.59 723.461 463.811 723.754 464.117C724.053 464.423 724.281 464.82 724.438 465.309C724.594 465.79 724.672 466.38 724.672 467.076V474H722.855V467.057C722.855 466.503 722.774 466.061 722.611 465.729C722.449 465.39 722.211 465.146 721.898 464.996C721.586 464.84 721.202 464.762 720.746 464.762C720.297 464.762 719.887 464.856 719.516 465.045C719.151 465.234 718.835 465.494 718.568 465.826C718.308 466.158 718.103 466.539 717.953 466.969C717.81 467.392 717.738 467.841 717.738 468.316ZM731.84 463.434V464.82H726.127V463.434H731.84ZM728.061 460.865H729.867V471.383C729.867 471.741 729.923 472.011 730.033 472.193C730.144 472.376 730.287 472.496 730.463 472.555C730.639 472.613 730.827 472.643 731.029 472.643C731.179 472.643 731.335 472.63 731.498 472.604C731.667 472.571 731.794 472.545 731.879 472.525L731.889 474C731.745 474.046 731.557 474.088 731.322 474.127C731.094 474.173 730.818 474.195 730.492 474.195C730.049 474.195 729.643 474.107 729.271 473.932C728.9 473.756 728.604 473.463 728.383 473.053C728.168 472.636 728.061 472.076 728.061 471.373V460.865ZM740.189 472.193V466.754C740.189 466.337 740.105 465.976 739.936 465.67C739.773 465.357 739.525 465.117 739.193 464.947C738.861 464.778 738.451 464.693 737.963 464.693C737.507 464.693 737.107 464.771 736.762 464.928C736.423 465.084 736.156 465.289 735.961 465.543C735.772 465.797 735.678 466.07 735.678 466.363H733.871C733.871 465.986 733.969 465.611 734.164 465.24C734.359 464.869 734.639 464.534 735.004 464.234C735.375 463.928 735.818 463.688 736.332 463.512C736.853 463.329 737.432 463.238 738.07 463.238C738.839 463.238 739.516 463.368 740.102 463.629C740.694 463.889 741.156 464.283 741.488 464.811C741.827 465.331 741.996 465.986 741.996 466.773V471.695C741.996 472.047 742.025 472.421 742.084 472.818C742.149 473.215 742.243 473.557 742.367 473.844V474H740.482C740.391 473.792 740.32 473.515 740.268 473.17C740.215 472.818 740.189 472.493 740.189 472.193ZM740.502 467.594L740.521 468.863H738.695C738.181 468.863 737.722 468.906 737.318 468.99C736.915 469.068 736.576 469.189 736.303 469.352C736.029 469.514 735.821 469.719 735.678 469.967C735.535 470.208 735.463 470.491 735.463 470.816C735.463 471.148 735.538 471.451 735.688 471.725C735.837 471.998 736.062 472.216 736.361 472.379C736.667 472.535 737.042 472.613 737.484 472.613C738.038 472.613 738.526 472.496 738.949 472.262C739.372 472.027 739.708 471.741 739.955 471.402C740.209 471.064 740.346 470.735 740.365 470.416L741.137 471.285C741.091 471.559 740.967 471.861 740.766 472.193C740.564 472.525 740.294 472.844 739.955 473.15C739.623 473.45 739.226 473.701 738.764 473.902C738.308 474.098 737.794 474.195 737.221 474.195C736.505 474.195 735.876 474.055 735.336 473.775C734.802 473.495 734.385 473.121 734.086 472.652C733.793 472.177 733.646 471.646 733.646 471.061C733.646 470.494 733.757 469.996 733.979 469.566C734.2 469.13 734.519 468.769 734.936 468.482C735.352 468.189 735.854 467.968 736.439 467.818C737.025 467.669 737.68 467.594 738.402 467.594H740.502Z" fill="black"/>
<path d="M596 475.953H743.461V476.93H596V475.953Z" fill="black"/>
</svg>
