<svg width="1280" height="720" viewBox="0 0 1280 720" fill="none" xmlns="http://www.w3.org/2000/svg">
<rect width="1280" height="720" fill="#E6E6E6"/>
<rect x="319" y="98" width="642" height="524" rx="15" fill="#B3B3B3"/>
<path d="M367.588 120.781V135H365.693L358.535 124.033V135H356.65V120.781H358.535L365.723 131.777V120.781H367.588ZM370.176 129.834V129.609C370.176 128.848 370.286 128.141 370.508 127.49C370.729 126.833 371.048 126.263 371.465 125.781C371.882 125.293 372.386 124.915 372.979 124.648C373.571 124.375 374.235 124.238 374.971 124.238C375.713 124.238 376.38 124.375 376.973 124.648C377.572 124.915 378.079 125.293 378.496 125.781C378.919 126.263 379.242 126.833 379.463 127.49C379.684 128.141 379.795 128.848 379.795 129.609V129.834C379.795 130.596 379.684 131.302 379.463 131.953C379.242 132.604 378.919 133.174 378.496 133.662C378.079 134.144 377.575 134.521 376.982 134.795C376.396 135.062 375.732 135.195 374.99 135.195C374.248 135.195 373.581 135.062 372.988 134.795C372.396 134.521 371.888 134.144 371.465 133.662C371.048 133.174 370.729 132.604 370.508 131.953C370.286 131.302 370.176 130.596 370.176 129.834ZM371.982 129.609V129.834C371.982 130.361 372.044 130.859 372.168 131.328C372.292 131.79 372.477 132.201 372.725 132.559C372.979 132.917 373.294 133.2 373.672 133.408C374.049 133.61 374.489 133.711 374.99 133.711C375.485 133.711 375.918 133.61 376.289 133.408C376.667 133.2 376.979 132.917 377.227 132.559C377.474 132.201 377.66 131.79 377.783 131.328C377.913 130.859 377.979 130.361 377.979 129.834V129.609C377.979 129.089 377.913 128.597 377.783 128.135C377.66 127.666 377.471 127.253 377.217 126.895C376.969 126.53 376.657 126.243 376.279 126.035C375.908 125.827 375.472 125.723 374.971 125.723C374.476 125.723 374.04 125.827 373.662 126.035C373.291 126.243 372.979 126.53 372.725 126.895C372.477 127.253 372.292 127.666 372.168 128.135C372.044 128.597 371.982 129.089 371.982 129.609ZM383.857 126.533V135H382.041V124.434H383.76L383.857 126.533ZM383.486 129.316L382.646 129.287C382.653 128.564 382.747 127.897 382.93 127.285C383.112 126.667 383.382 126.13 383.74 125.674C384.098 125.218 384.544 124.867 385.078 124.619C385.612 124.365 386.23 124.238 386.934 124.238C387.428 124.238 387.884 124.31 388.301 124.453C388.717 124.59 389.079 124.808 389.385 125.107C389.691 125.407 389.928 125.791 390.098 126.26C390.267 126.729 390.352 127.295 390.352 127.959V135H388.545V128.047C388.545 127.493 388.451 127.051 388.262 126.719C388.079 126.387 387.819 126.146 387.48 125.996C387.142 125.84 386.745 125.762 386.289 125.762C385.755 125.762 385.309 125.856 384.951 126.045C384.593 126.234 384.307 126.494 384.092 126.826C383.877 127.158 383.721 127.539 383.623 127.969C383.532 128.392 383.486 128.841 383.486 129.316ZM390.332 128.32L389.121 128.691C389.128 128.112 389.222 127.555 389.404 127.021C389.593 126.488 389.863 126.012 390.215 125.596C390.573 125.179 391.012 124.85 391.533 124.609C392.054 124.362 392.65 124.238 393.32 124.238C393.887 124.238 394.388 124.313 394.824 124.463C395.267 124.613 395.638 124.844 395.938 125.156C396.243 125.462 396.475 125.856 396.631 126.338C396.787 126.82 396.865 127.393 396.865 128.057V135H395.049V128.037C395.049 127.445 394.954 126.986 394.766 126.66C394.583 126.328 394.323 126.097 393.984 125.967C393.652 125.83 393.255 125.762 392.793 125.762C392.396 125.762 392.044 125.83 391.738 125.967C391.432 126.104 391.175 126.292 390.967 126.533C390.758 126.768 390.599 127.038 390.488 127.344C390.384 127.65 390.332 127.975 390.332 128.32ZM403.984 135.195C403.249 135.195 402.581 135.072 401.982 134.824C401.39 134.57 400.879 134.215 400.449 133.76C400.026 133.304 399.701 132.764 399.473 132.139C399.245 131.514 399.131 130.83 399.131 130.088V129.678C399.131 128.818 399.258 128.053 399.512 127.383C399.766 126.706 400.111 126.133 400.547 125.664C400.983 125.195 401.478 124.84 402.031 124.6C402.585 124.359 403.158 124.238 403.75 124.238C404.505 124.238 405.156 124.368 405.703 124.629C406.257 124.889 406.709 125.254 407.061 125.723C407.412 126.185 407.673 126.732 407.842 127.363C408.011 127.988 408.096 128.672 408.096 129.414V130.225H400.205V128.75H406.289V128.613C406.263 128.145 406.165 127.689 405.996 127.246C405.833 126.803 405.573 126.439 405.215 126.152C404.857 125.866 404.368 125.723 403.75 125.723C403.34 125.723 402.962 125.811 402.617 125.986C402.272 126.156 401.976 126.41 401.729 126.748C401.481 127.087 401.289 127.5 401.152 127.988C401.016 128.477 400.947 129.04 400.947 129.678V130.088C400.947 130.589 401.016 131.061 401.152 131.504C401.296 131.94 401.501 132.324 401.768 132.656C402.041 132.988 402.37 133.249 402.754 133.438C403.145 133.626 403.587 133.721 404.082 133.721C404.72 133.721 405.26 133.59 405.703 133.33C406.146 133.07 406.533 132.721 406.865 132.285L407.959 133.154C407.731 133.499 407.441 133.828 407.09 134.141C406.738 134.453 406.305 134.707 405.791 134.902C405.283 135.098 404.681 135.195 403.984 135.195Z" fill="black"/>
<path d="M371.684 233.467V235H364.154V233.467H371.684ZM364.535 220.781V235H362.65V220.781H364.535ZM370.688 226.895V228.428H364.154V226.895H370.688ZM371.586 220.781V222.324H364.154V220.781H371.586ZM375.541 226.533V235H373.725V224.434H375.443L375.541 226.533ZM375.17 229.316L374.33 229.287C374.337 228.564 374.431 227.897 374.613 227.285C374.796 226.667 375.066 226.13 375.424 225.674C375.782 225.218 376.228 224.867 376.762 224.619C377.296 224.365 377.914 224.238 378.617 224.238C379.112 224.238 379.568 224.31 379.984 224.453C380.401 224.59 380.762 224.808 381.068 225.107C381.374 225.407 381.612 225.791 381.781 226.26C381.951 226.729 382.035 227.295 382.035 227.959V235H380.229V228.047C380.229 227.493 380.134 227.051 379.945 226.719C379.763 226.387 379.503 226.146 379.164 225.996C378.826 225.84 378.428 225.762 377.973 225.762C377.439 225.762 376.993 225.856 376.635 226.045C376.277 226.234 375.99 226.494 375.775 226.826C375.561 227.158 375.404 227.539 375.307 227.969C375.215 228.392 375.17 228.841 375.17 229.316ZM382.016 228.32L380.805 228.691C380.811 228.112 380.906 227.555 381.088 227.021C381.277 226.488 381.547 226.012 381.898 225.596C382.257 225.179 382.696 224.85 383.217 224.609C383.738 224.362 384.333 224.238 385.004 224.238C385.57 224.238 386.072 224.313 386.508 224.463C386.951 224.613 387.322 224.844 387.621 225.156C387.927 225.462 388.158 225.856 388.314 226.338C388.471 226.82 388.549 227.393 388.549 228.057V235H386.732V228.037C386.732 227.445 386.638 226.986 386.449 226.66C386.267 226.328 386.007 226.097 385.668 225.967C385.336 225.83 384.939 225.762 384.477 225.762C384.079 225.762 383.728 225.83 383.422 225.967C383.116 226.104 382.859 226.292 382.65 226.533C382.442 226.768 382.283 227.038 382.172 227.344C382.068 227.65 382.016 227.975 382.016 228.32ZM397.514 233.193V227.754C397.514 227.337 397.429 226.976 397.26 226.67C397.097 226.357 396.85 226.117 396.518 225.947C396.186 225.778 395.775 225.693 395.287 225.693C394.831 225.693 394.431 225.771 394.086 225.928C393.747 226.084 393.48 226.289 393.285 226.543C393.096 226.797 393.002 227.07 393.002 227.363H391.195C391.195 226.986 391.293 226.611 391.488 226.24C391.684 225.869 391.964 225.534 392.328 225.234C392.699 224.928 393.142 224.688 393.656 224.512C394.177 224.329 394.757 224.238 395.395 224.238C396.163 224.238 396.84 224.368 397.426 224.629C398.018 224.889 398.48 225.283 398.812 225.811C399.151 226.331 399.32 226.986 399.32 227.773V232.695C399.32 233.047 399.35 233.421 399.408 233.818C399.473 234.215 399.568 234.557 399.691 234.844V235H397.807C397.715 234.792 397.644 234.515 397.592 234.17C397.54 233.818 397.514 233.493 397.514 233.193ZM397.826 228.594L397.846 229.863H396.02C395.505 229.863 395.046 229.906 394.643 229.99C394.239 230.068 393.9 230.189 393.627 230.352C393.354 230.514 393.145 230.719 393.002 230.967C392.859 231.208 392.787 231.491 392.787 231.816C392.787 232.148 392.862 232.451 393.012 232.725C393.161 232.998 393.386 233.216 393.686 233.379C393.992 233.535 394.366 233.613 394.809 233.613C395.362 233.613 395.85 233.496 396.273 233.262C396.697 233.027 397.032 232.741 397.279 232.402C397.533 232.064 397.67 231.735 397.689 231.416L398.461 232.285C398.415 232.559 398.292 232.861 398.09 233.193C397.888 233.525 397.618 233.844 397.279 234.15C396.947 234.45 396.55 234.701 396.088 234.902C395.632 235.098 395.118 235.195 394.545 235.195C393.829 235.195 393.201 235.055 392.66 234.775C392.126 234.495 391.71 234.121 391.41 233.652C391.117 233.177 390.971 232.646 390.971 232.061C390.971 231.494 391.081 230.996 391.303 230.566C391.524 230.13 391.843 229.769 392.26 229.482C392.676 229.189 393.178 228.968 393.764 228.818C394.35 228.669 395.004 228.594 395.727 228.594H397.826ZM404.125 224.434V235H402.309V224.434H404.125ZM402.172 221.631C402.172 221.338 402.26 221.09 402.436 220.889C402.618 220.687 402.885 220.586 403.236 220.586C403.581 220.586 403.845 220.687 404.027 220.889C404.216 221.09 404.311 221.338 404.311 221.631C404.311 221.911 404.216 222.152 404.027 222.354C403.845 222.549 403.581 222.646 403.236 222.646C402.885 222.646 402.618 222.549 402.436 222.354C402.26 222.152 402.172 221.911 402.172 221.631ZM408.988 220V235H407.172V220H408.988Z" fill="black"/>
<path d="M367.895 329.424H364.096V327.891H367.895C368.63 327.891 369.226 327.773 369.682 327.539C370.137 327.305 370.469 326.979 370.678 326.562C370.893 326.146 371 325.671 371 325.137C371 324.648 370.893 324.189 370.678 323.76C370.469 323.33 370.137 322.985 369.682 322.725C369.226 322.458 368.63 322.324 367.895 322.324H364.535V335H362.65V320.781H367.895C368.969 320.781 369.877 320.967 370.619 321.338C371.361 321.709 371.924 322.223 372.309 322.881C372.693 323.532 372.885 324.277 372.885 325.117C372.885 326.029 372.693 326.807 372.309 327.451C371.924 328.096 371.361 328.587 370.619 328.926C369.877 329.258 368.969 329.424 367.895 329.424ZM381.107 333.193V327.754C381.107 327.337 381.023 326.976 380.854 326.67C380.691 326.357 380.443 326.117 380.111 325.947C379.779 325.778 379.369 325.693 378.881 325.693C378.425 325.693 378.025 325.771 377.68 325.928C377.341 326.084 377.074 326.289 376.879 326.543C376.69 326.797 376.596 327.07 376.596 327.363H374.789C374.789 326.986 374.887 326.611 375.082 326.24C375.277 325.869 375.557 325.534 375.922 325.234C376.293 324.928 376.736 324.688 377.25 324.512C377.771 324.329 378.35 324.238 378.988 324.238C379.757 324.238 380.434 324.368 381.02 324.629C381.612 324.889 382.074 325.283 382.406 325.811C382.745 326.331 382.914 326.986 382.914 327.773V332.695C382.914 333.047 382.943 333.421 383.002 333.818C383.067 334.215 383.161 334.557 383.285 334.844V335H381.4C381.309 334.792 381.238 334.515 381.186 334.17C381.133 333.818 381.107 333.493 381.107 333.193ZM381.42 328.594L381.439 329.863H379.613C379.099 329.863 378.64 329.906 378.236 329.99C377.833 330.068 377.494 330.189 377.221 330.352C376.947 330.514 376.739 330.719 376.596 330.967C376.452 331.208 376.381 331.491 376.381 331.816C376.381 332.148 376.456 332.451 376.605 332.725C376.755 332.998 376.98 333.216 377.279 333.379C377.585 333.535 377.96 333.613 378.402 333.613C378.956 333.613 379.444 333.496 379.867 333.262C380.29 333.027 380.626 332.741 380.873 332.402C381.127 332.064 381.264 331.735 381.283 331.416L382.055 332.285C382.009 332.559 381.885 332.861 381.684 333.193C381.482 333.525 381.212 333.844 380.873 334.15C380.541 334.45 380.144 334.701 379.682 334.902C379.226 335.098 378.712 335.195 378.139 335.195C377.423 335.195 376.794 335.055 376.254 334.775C375.72 334.495 375.303 334.121 375.004 333.652C374.711 333.177 374.564 332.646 374.564 332.061C374.564 331.494 374.675 330.996 374.896 330.566C375.118 330.13 375.437 329.769 375.854 329.482C376.27 329.189 376.771 328.968 377.357 328.818C377.943 328.669 378.598 328.594 379.32 328.594H381.42ZM391.908 332.197C391.908 331.937 391.85 331.696 391.732 331.475C391.622 331.247 391.391 331.042 391.039 330.859C390.694 330.671 390.173 330.508 389.477 330.371C388.891 330.247 388.36 330.101 387.885 329.932C387.416 329.762 387.016 329.557 386.684 329.316C386.358 329.076 386.107 328.792 385.932 328.467C385.756 328.141 385.668 327.76 385.668 327.324C385.668 326.908 385.759 326.514 385.941 326.143C386.13 325.771 386.394 325.443 386.732 325.156C387.077 324.87 387.491 324.645 387.973 324.482C388.454 324.32 388.992 324.238 389.584 324.238C390.43 324.238 391.153 324.388 391.752 324.688C392.351 324.987 392.81 325.387 393.129 325.889C393.448 326.383 393.607 326.934 393.607 327.539H391.801C391.801 327.246 391.713 326.963 391.537 326.689C391.368 326.41 391.117 326.178 390.785 325.996C390.46 325.814 390.059 325.723 389.584 325.723C389.083 325.723 388.676 325.801 388.363 325.957C388.057 326.107 387.833 326.299 387.689 326.533C387.553 326.768 387.484 327.015 387.484 327.275C387.484 327.471 387.517 327.646 387.582 327.803C387.654 327.952 387.777 328.092 387.953 328.223C388.129 328.346 388.376 328.464 388.695 328.574C389.014 328.685 389.421 328.796 389.916 328.906C390.782 329.102 391.495 329.336 392.055 329.609C392.615 329.883 393.031 330.218 393.305 330.615C393.578 331.012 393.715 331.494 393.715 332.061C393.715 332.523 393.617 332.946 393.422 333.33C393.233 333.714 392.956 334.046 392.592 334.326C392.234 334.6 391.804 334.814 391.303 334.971C390.808 335.12 390.251 335.195 389.633 335.195C388.702 335.195 387.914 335.029 387.27 334.697C386.625 334.365 386.137 333.936 385.805 333.408C385.473 332.881 385.307 332.324 385.307 331.738H387.123C387.149 332.233 387.292 332.627 387.553 332.92C387.813 333.206 388.132 333.411 388.51 333.535C388.887 333.652 389.262 333.711 389.633 333.711C390.128 333.711 390.541 333.646 390.873 333.516C391.212 333.385 391.469 333.206 391.645 332.979C391.82 332.751 391.908 332.49 391.908 332.197ZM402.24 332.197C402.24 331.937 402.182 331.696 402.064 331.475C401.954 331.247 401.723 331.042 401.371 330.859C401.026 330.671 400.505 330.508 399.809 330.371C399.223 330.247 398.692 330.101 398.217 329.932C397.748 329.762 397.348 329.557 397.016 329.316C396.69 329.076 396.439 328.792 396.264 328.467C396.088 328.141 396 327.76 396 327.324C396 326.908 396.091 326.514 396.273 326.143C396.462 325.771 396.726 325.443 397.064 325.156C397.41 324.87 397.823 324.645 398.305 324.482C398.786 324.32 399.324 324.238 399.916 324.238C400.762 324.238 401.485 324.388 402.084 324.688C402.683 324.987 403.142 325.387 403.461 325.889C403.78 326.383 403.939 326.934 403.939 327.539H402.133C402.133 327.246 402.045 326.963 401.869 326.689C401.7 326.41 401.449 326.178 401.117 325.996C400.792 325.814 400.391 325.723 399.916 325.723C399.415 325.723 399.008 325.801 398.695 325.957C398.389 326.107 398.165 326.299 398.021 326.533C397.885 326.768 397.816 327.015 397.816 327.275C397.816 327.471 397.849 327.646 397.914 327.803C397.986 327.952 398.109 328.092 398.285 328.223C398.461 328.346 398.708 328.464 399.027 328.574C399.346 328.685 399.753 328.796 400.248 328.906C401.114 329.102 401.827 329.336 402.387 329.609C402.947 329.883 403.363 330.218 403.637 330.615C403.91 331.012 404.047 331.494 404.047 332.061C404.047 332.523 403.949 332.946 403.754 333.33C403.565 333.714 403.288 334.046 402.924 334.326C402.566 334.6 402.136 334.814 401.635 334.971C401.14 335.12 400.583 335.195 399.965 335.195C399.034 335.195 398.246 335.029 397.602 334.697C396.957 334.365 396.469 333.936 396.137 333.408C395.805 332.881 395.639 332.324 395.639 331.738H397.455C397.481 332.233 397.624 332.627 397.885 332.92C398.145 333.206 398.464 333.411 398.842 333.535C399.219 333.652 399.594 333.711 399.965 333.711C400.46 333.711 400.873 333.646 401.205 333.516C401.544 333.385 401.801 333.206 401.977 332.979C402.152 332.751 402.24 332.49 402.24 332.197ZM409.096 333.125L411.811 324.434H413.002L412.768 326.162L410.004 335H408.842L409.096 333.125ZM407.27 324.434L409.584 333.223L409.75 335H408.529L405.463 324.434H407.27ZM415.6 333.154L417.807 324.434H419.604L416.537 335H415.326L415.6 333.154ZM413.266 324.434L415.922 332.979L416.225 335H415.072L412.23 326.143L411.996 324.434H413.266ZM420.98 329.834V329.609C420.98 328.848 421.091 328.141 421.312 327.49C421.534 326.833 421.853 326.263 422.27 325.781C422.686 325.293 423.191 324.915 423.783 324.648C424.376 324.375 425.04 324.238 425.775 324.238C426.518 324.238 427.185 324.375 427.777 324.648C428.376 324.915 428.884 325.293 429.301 325.781C429.724 326.263 430.046 326.833 430.268 327.49C430.489 328.141 430.6 328.848 430.6 329.609V329.834C430.6 330.596 430.489 331.302 430.268 331.953C430.046 332.604 429.724 333.174 429.301 333.662C428.884 334.144 428.38 334.521 427.787 334.795C427.201 335.062 426.537 335.195 425.795 335.195C425.053 335.195 424.385 335.062 423.793 334.795C423.201 334.521 422.693 334.144 422.27 333.662C421.853 333.174 421.534 332.604 421.312 331.953C421.091 331.302 420.98 330.596 420.98 329.834ZM422.787 329.609V329.834C422.787 330.361 422.849 330.859 422.973 331.328C423.096 331.79 423.282 332.201 423.529 332.559C423.783 332.917 424.099 333.2 424.477 333.408C424.854 333.61 425.294 333.711 425.795 333.711C426.29 333.711 426.723 333.61 427.094 333.408C427.471 333.2 427.784 332.917 428.031 332.559C428.279 332.201 428.464 331.79 428.588 331.328C428.718 330.859 428.783 330.361 428.783 329.834V329.609C428.783 329.089 428.718 328.597 428.588 328.135C428.464 327.666 428.275 327.253 428.021 326.895C427.774 326.53 427.462 326.243 427.084 326.035C426.713 325.827 426.277 325.723 425.775 325.723C425.281 325.723 424.844 325.827 424.467 326.035C424.096 326.243 423.783 326.53 423.529 326.895C423.282 327.253 423.096 327.666 422.973 328.135C422.849 328.597 422.787 329.089 422.787 329.609ZM434.672 326.094V335H432.865V324.434H434.623L434.672 326.094ZM437.973 324.375L437.963 326.055C437.813 326.022 437.67 326.003 437.533 325.996C437.403 325.983 437.253 325.977 437.084 325.977C436.667 325.977 436.299 326.042 435.98 326.172C435.661 326.302 435.391 326.484 435.17 326.719C434.949 326.953 434.773 327.233 434.643 327.559C434.519 327.878 434.438 328.229 434.398 328.613L433.891 328.906C433.891 328.268 433.952 327.669 434.076 327.109C434.206 326.549 434.405 326.055 434.672 325.625C434.939 325.189 435.277 324.85 435.688 324.609C436.104 324.362 436.599 324.238 437.172 324.238C437.302 324.238 437.452 324.255 437.621 324.287C437.79 324.313 437.908 324.342 437.973 324.375ZM446.107 332.949V320H447.924V335H446.264L446.107 332.949ZM438.998 329.834V329.629C438.998 328.822 439.096 328.089 439.291 327.432C439.493 326.768 439.776 326.198 440.141 325.723C440.512 325.247 440.951 324.883 441.459 324.629C441.973 324.368 442.546 324.238 443.178 324.238C443.842 324.238 444.421 324.355 444.916 324.59C445.417 324.818 445.84 325.153 446.186 325.596C446.537 326.032 446.814 326.559 447.016 327.178C447.217 327.796 447.357 328.496 447.436 329.277V330.176C447.364 330.951 447.224 331.647 447.016 332.266C446.814 332.884 446.537 333.411 446.186 333.848C445.84 334.284 445.417 334.619 444.916 334.854C444.415 335.081 443.829 335.195 443.158 335.195C442.54 335.195 441.973 335.062 441.459 334.795C440.951 334.528 440.512 334.154 440.141 333.672C439.776 333.19 439.493 332.624 439.291 331.973C439.096 331.315 438.998 330.602 438.998 329.834ZM440.814 329.629V329.834C440.814 330.361 440.867 330.856 440.971 331.318C441.081 331.781 441.251 332.188 441.479 332.539C441.706 332.891 441.996 333.167 442.348 333.369C442.699 333.564 443.119 333.662 443.607 333.662C444.206 333.662 444.698 333.535 445.082 333.281C445.473 333.027 445.785 332.692 446.02 332.275C446.254 331.859 446.436 331.406 446.566 330.918V328.564C446.488 328.206 446.374 327.861 446.225 327.529C446.081 327.191 445.893 326.891 445.658 326.631C445.43 326.364 445.147 326.152 444.809 325.996C444.477 325.84 444.083 325.762 443.627 325.762C443.132 325.762 442.706 325.866 442.348 326.074C441.996 326.276 441.706 326.556 441.479 326.914C441.251 327.266 441.081 327.676 440.971 328.145C440.867 328.607 440.814 329.102 440.814 329.629Z" fill="black"/>
<path d="M371.234 435.479H373.109C373.012 436.377 372.755 437.181 372.338 437.891C371.921 438.6 371.332 439.163 370.57 439.58C369.809 439.99 368.858 440.195 367.719 440.195C366.885 440.195 366.127 440.039 365.443 439.727C364.766 439.414 364.184 438.971 363.695 438.398C363.207 437.819 362.829 437.126 362.562 436.318C362.302 435.505 362.172 434.6 362.172 433.604V432.188C362.172 431.191 362.302 430.29 362.562 429.482C362.829 428.669 363.21 427.972 363.705 427.393C364.206 426.813 364.809 426.367 365.512 426.055C366.215 425.742 367.006 425.586 367.885 425.586C368.959 425.586 369.867 425.788 370.609 426.191C371.352 426.595 371.928 427.155 372.338 427.871C372.755 428.581 373.012 429.404 373.109 430.342H371.234C371.143 429.678 370.974 429.108 370.727 428.633C370.479 428.151 370.128 427.78 369.672 427.52C369.216 427.259 368.62 427.129 367.885 427.129C367.253 427.129 366.697 427.249 366.215 427.49C365.74 427.731 365.339 428.073 365.014 428.516C364.695 428.958 364.454 429.489 364.291 430.107C364.128 430.726 364.047 431.413 364.047 432.168V433.604C364.047 434.3 364.118 434.954 364.262 435.566C364.411 436.178 364.636 436.715 364.936 437.178C365.235 437.64 365.616 438.005 366.078 438.271C366.54 438.532 367.087 438.662 367.719 438.662C368.52 438.662 369.158 438.535 369.633 438.281C370.108 438.027 370.466 437.663 370.707 437.188C370.954 436.712 371.13 436.143 371.234 435.479ZM374.926 434.834V434.609C374.926 433.848 375.036 433.141 375.258 432.49C375.479 431.833 375.798 431.263 376.215 430.781C376.632 430.293 377.136 429.915 377.729 429.648C378.321 429.375 378.985 429.238 379.721 429.238C380.463 429.238 381.13 429.375 381.723 429.648C382.322 429.915 382.829 430.293 383.246 430.781C383.669 431.263 383.992 431.833 384.213 432.49C384.434 433.141 384.545 433.848 384.545 434.609V434.834C384.545 435.596 384.434 436.302 384.213 436.953C383.992 437.604 383.669 438.174 383.246 438.662C382.829 439.144 382.325 439.521 381.732 439.795C381.146 440.062 380.482 440.195 379.74 440.195C378.998 440.195 378.331 440.062 377.738 439.795C377.146 439.521 376.638 439.144 376.215 438.662C375.798 438.174 375.479 437.604 375.258 436.953C375.036 436.302 374.926 435.596 374.926 434.834ZM376.732 434.609V434.834C376.732 435.361 376.794 435.859 376.918 436.328C377.042 436.79 377.227 437.201 377.475 437.559C377.729 437.917 378.044 438.2 378.422 438.408C378.799 438.61 379.239 438.711 379.74 438.711C380.235 438.711 380.668 438.61 381.039 438.408C381.417 438.2 381.729 437.917 381.977 437.559C382.224 437.201 382.41 436.79 382.533 436.328C382.663 435.859 382.729 435.361 382.729 434.834V434.609C382.729 434.089 382.663 433.597 382.533 433.135C382.41 432.666 382.221 432.253 381.967 431.895C381.719 431.53 381.407 431.243 381.029 431.035C380.658 430.827 380.222 430.723 379.721 430.723C379.226 430.723 378.79 430.827 378.412 431.035C378.041 431.243 377.729 431.53 377.475 431.895C377.227 432.253 377.042 432.666 376.918 433.135C376.794 433.597 376.732 434.089 376.732 434.609ZM388.617 431.689V440H386.811V429.434H388.52L388.617 431.689ZM388.188 434.316L387.436 434.287C387.442 433.564 387.549 432.897 387.758 432.285C387.966 431.667 388.259 431.13 388.637 430.674C389.014 430.218 389.464 429.867 389.984 429.619C390.512 429.365 391.094 429.238 391.732 429.238C392.253 429.238 392.722 429.31 393.139 429.453C393.555 429.59 393.91 429.811 394.203 430.117C394.503 430.423 394.73 430.82 394.887 431.309C395.043 431.79 395.121 432.38 395.121 433.076V440H393.305V433.057C393.305 432.503 393.223 432.061 393.061 431.729C392.898 431.39 392.66 431.146 392.348 430.996C392.035 430.84 391.651 430.762 391.195 430.762C390.746 430.762 390.336 430.856 389.965 431.045C389.6 431.234 389.285 431.494 389.018 431.826C388.757 432.158 388.552 432.539 388.402 432.969C388.259 433.392 388.188 433.841 388.188 434.316ZM400.277 440H398.471V428.516C398.471 427.715 398.627 427.038 398.939 426.484C399.252 425.931 399.698 425.511 400.277 425.225C400.857 424.938 401.544 424.795 402.338 424.795C402.807 424.795 403.266 424.854 403.715 424.971C404.164 425.081 404.626 425.221 405.102 425.391L404.799 426.914C404.499 426.797 404.151 426.686 403.754 426.582C403.363 426.471 402.934 426.416 402.465 426.416C401.69 426.416 401.13 426.592 400.785 426.943C400.447 427.288 400.277 427.812 400.277 428.516V440ZM402.436 429.434V430.82H396.801V429.434H402.436ZM405.99 429.434V440H404.184V429.434H405.99ZM410.766 431.094V440H408.959V429.434H410.717L410.766 431.094ZM414.066 429.375L414.057 431.055C413.907 431.022 413.764 431.003 413.627 430.996C413.497 430.983 413.347 430.977 413.178 430.977C412.761 430.977 412.393 431.042 412.074 431.172C411.755 431.302 411.485 431.484 411.264 431.719C411.042 431.953 410.867 432.233 410.736 432.559C410.613 432.878 410.531 433.229 410.492 433.613L409.984 433.906C409.984 433.268 410.046 432.669 410.17 432.109C410.3 431.549 410.499 431.055 410.766 430.625C411.033 430.189 411.371 429.85 411.781 429.609C412.198 429.362 412.693 429.238 413.266 429.238C413.396 429.238 413.546 429.255 413.715 429.287C413.884 429.313 414.001 429.342 414.066 429.375ZM417.533 431.533V440H415.717V429.434H417.436L417.533 431.533ZM417.162 434.316L416.322 434.287C416.329 433.564 416.423 432.897 416.605 432.285C416.788 431.667 417.058 431.13 417.416 430.674C417.774 430.218 418.22 429.867 418.754 429.619C419.288 429.365 419.906 429.238 420.609 429.238C421.104 429.238 421.56 429.31 421.977 429.453C422.393 429.59 422.755 429.808 423.061 430.107C423.367 430.407 423.604 430.791 423.773 431.26C423.943 431.729 424.027 432.295 424.027 432.959V440H422.221V433.047C422.221 432.493 422.126 432.051 421.938 431.719C421.755 431.387 421.495 431.146 421.156 430.996C420.818 430.84 420.421 430.762 419.965 430.762C419.431 430.762 418.985 430.856 418.627 431.045C418.269 431.234 417.982 431.494 417.768 431.826C417.553 432.158 417.396 432.539 417.299 432.969C417.208 433.392 417.162 433.841 417.162 434.316ZM424.008 433.32L422.797 433.691C422.803 433.112 422.898 432.555 423.08 432.021C423.269 431.488 423.539 431.012 423.891 430.596C424.249 430.179 424.688 429.85 425.209 429.609C425.73 429.362 426.326 429.238 426.996 429.238C427.562 429.238 428.064 429.313 428.5 429.463C428.943 429.613 429.314 429.844 429.613 430.156C429.919 430.462 430.15 430.856 430.307 431.338C430.463 431.82 430.541 432.393 430.541 433.057V440H428.725V433.037C428.725 432.445 428.63 431.986 428.441 431.66C428.259 431.328 427.999 431.097 427.66 430.967C427.328 430.83 426.931 430.762 426.469 430.762C426.072 430.762 425.72 430.83 425.414 430.967C425.108 431.104 424.851 431.292 424.643 431.533C424.434 431.768 424.275 432.038 424.164 432.344C424.06 432.65 424.008 432.975 424.008 433.32ZM443.754 434.424H439.955V432.891H443.754C444.49 432.891 445.085 432.773 445.541 432.539C445.997 432.305 446.329 431.979 446.537 431.562C446.752 431.146 446.859 430.671 446.859 430.137C446.859 429.648 446.752 429.189 446.537 428.76C446.329 428.33 445.997 427.985 445.541 427.725C445.085 427.458 444.49 427.324 443.754 427.324H440.395V440H438.51V425.781H443.754C444.828 425.781 445.736 425.967 446.479 426.338C447.221 426.709 447.784 427.223 448.168 427.881C448.552 428.532 448.744 429.277 448.744 430.117C448.744 431.029 448.552 431.807 448.168 432.451C447.784 433.096 447.221 433.587 446.479 433.926C445.736 434.258 444.828 434.424 443.754 434.424ZM456.967 438.193V432.754C456.967 432.337 456.882 431.976 456.713 431.67C456.55 431.357 456.303 431.117 455.971 430.947C455.639 430.778 455.229 430.693 454.74 430.693C454.285 430.693 453.884 430.771 453.539 430.928C453.201 431.084 452.934 431.289 452.738 431.543C452.549 431.797 452.455 432.07 452.455 432.363H450.648C450.648 431.986 450.746 431.611 450.941 431.24C451.137 430.869 451.417 430.534 451.781 430.234C452.152 429.928 452.595 429.688 453.109 429.512C453.63 429.329 454.21 429.238 454.848 429.238C455.616 429.238 456.293 429.368 456.879 429.629C457.471 429.889 457.934 430.283 458.266 430.811C458.604 431.331 458.773 431.986 458.773 432.773V437.695C458.773 438.047 458.803 438.421 458.861 438.818C458.926 439.215 459.021 439.557 459.145 439.844V440H457.26C457.169 439.792 457.097 439.515 457.045 439.17C456.993 438.818 456.967 438.493 456.967 438.193ZM457.279 433.594L457.299 434.863H455.473C454.958 434.863 454.499 434.906 454.096 434.99C453.692 435.068 453.354 435.189 453.08 435.352C452.807 435.514 452.598 435.719 452.455 435.967C452.312 436.208 452.24 436.491 452.24 436.816C452.24 437.148 452.315 437.451 452.465 437.725C452.615 437.998 452.839 438.216 453.139 438.379C453.445 438.535 453.819 438.613 454.262 438.613C454.815 438.613 455.303 438.496 455.727 438.262C456.15 438.027 456.485 437.741 456.732 437.402C456.986 437.064 457.123 436.735 457.143 436.416L457.914 437.285C457.868 437.559 457.745 437.861 457.543 438.193C457.341 438.525 457.071 438.844 456.732 439.15C456.4 439.45 456.003 439.701 455.541 439.902C455.085 440.098 454.571 440.195 453.998 440.195C453.282 440.195 452.654 440.055 452.113 439.775C451.579 439.495 451.163 439.121 450.863 438.652C450.57 438.177 450.424 437.646 450.424 437.061C450.424 436.494 450.535 435.996 450.756 435.566C450.977 435.13 451.296 434.769 451.713 434.482C452.13 434.189 452.631 433.968 453.217 433.818C453.803 433.669 454.457 433.594 455.18 433.594H457.279ZM467.768 437.197C467.768 436.937 467.709 436.696 467.592 436.475C467.481 436.247 467.25 436.042 466.898 435.859C466.553 435.671 466.033 435.508 465.336 435.371C464.75 435.247 464.219 435.101 463.744 434.932C463.275 434.762 462.875 434.557 462.543 434.316C462.217 434.076 461.967 433.792 461.791 433.467C461.615 433.141 461.527 432.76 461.527 432.324C461.527 431.908 461.618 431.514 461.801 431.143C461.99 430.771 462.253 430.443 462.592 430.156C462.937 429.87 463.35 429.645 463.832 429.482C464.314 429.32 464.851 429.238 465.443 429.238C466.29 429.238 467.012 429.388 467.611 429.688C468.21 429.987 468.669 430.387 468.988 430.889C469.307 431.383 469.467 431.934 469.467 432.539H467.66C467.66 432.246 467.572 431.963 467.396 431.689C467.227 431.41 466.977 431.178 466.645 430.996C466.319 430.814 465.919 430.723 465.443 430.723C464.942 430.723 464.535 430.801 464.223 430.957C463.917 431.107 463.692 431.299 463.549 431.533C463.412 431.768 463.344 432.015 463.344 432.275C463.344 432.471 463.376 432.646 463.441 432.803C463.513 432.952 463.637 433.092 463.812 433.223C463.988 433.346 464.236 433.464 464.555 433.574C464.874 433.685 465.281 433.796 465.775 433.906C466.641 434.102 467.354 434.336 467.914 434.609C468.474 434.883 468.891 435.218 469.164 435.615C469.438 436.012 469.574 436.494 469.574 437.061C469.574 437.523 469.477 437.946 469.281 438.33C469.092 438.714 468.816 439.046 468.451 439.326C468.093 439.6 467.663 439.814 467.162 439.971C466.667 440.12 466.111 440.195 465.492 440.195C464.561 440.195 463.773 440.029 463.129 439.697C462.484 439.365 461.996 438.936 461.664 438.408C461.332 437.881 461.166 437.324 461.166 436.738H462.982C463.008 437.233 463.152 437.627 463.412 437.92C463.673 438.206 463.992 438.411 464.369 438.535C464.747 438.652 465.121 438.711 465.492 438.711C465.987 438.711 466.4 438.646 466.732 438.516C467.071 438.385 467.328 438.206 467.504 437.979C467.68 437.751 467.768 437.49 467.768 437.197ZM478.1 437.197C478.1 436.937 478.041 436.696 477.924 436.475C477.813 436.247 477.582 436.042 477.23 435.859C476.885 435.671 476.365 435.508 475.668 435.371C475.082 435.247 474.551 435.101 474.076 434.932C473.607 434.762 473.207 434.557 472.875 434.316C472.549 434.076 472.299 433.792 472.123 433.467C471.947 433.141 471.859 432.76 471.859 432.324C471.859 431.908 471.951 431.514 472.133 431.143C472.322 430.771 472.585 430.443 472.924 430.156C473.269 429.87 473.682 429.645 474.164 429.482C474.646 429.32 475.183 429.238 475.775 429.238C476.622 429.238 477.344 429.388 477.943 429.688C478.542 429.987 479.001 430.387 479.32 430.889C479.639 431.383 479.799 431.934 479.799 432.539H477.992C477.992 432.246 477.904 431.963 477.729 431.689C477.559 431.41 477.309 431.178 476.977 430.996C476.651 430.814 476.251 430.723 475.775 430.723C475.274 430.723 474.867 430.801 474.555 430.957C474.249 431.107 474.024 431.299 473.881 431.533C473.744 431.768 473.676 432.015 473.676 432.275C473.676 432.471 473.708 432.646 473.773 432.803C473.845 432.952 473.969 433.092 474.145 433.223C474.32 433.346 474.568 433.464 474.887 433.574C475.206 433.685 475.613 433.796 476.107 433.906C476.973 434.102 477.686 434.336 478.246 434.609C478.806 434.883 479.223 435.218 479.496 435.615C479.77 436.012 479.906 436.494 479.906 437.061C479.906 437.523 479.809 437.946 479.613 438.33C479.424 438.714 479.148 439.046 478.783 439.326C478.425 439.6 477.995 439.814 477.494 439.971C476.999 440.12 476.443 440.195 475.824 440.195C474.893 440.195 474.105 440.029 473.461 439.697C472.816 439.365 472.328 438.936 471.996 438.408C471.664 437.881 471.498 437.324 471.498 436.738H473.314C473.34 437.233 473.484 437.627 473.744 437.92C474.005 438.206 474.324 438.411 474.701 438.535C475.079 438.652 475.453 438.711 475.824 438.711C476.319 438.711 476.732 438.646 477.064 438.516C477.403 438.385 477.66 438.206 477.836 437.979C478.012 437.751 478.1 437.49 478.1 437.197ZM484.955 438.125L487.67 429.434H488.861L488.627 431.162L485.863 440H484.701L484.955 438.125ZM483.129 429.434L485.443 438.223L485.609 440H484.389L481.322 429.434H483.129ZM491.459 438.154L493.666 429.434H495.463L492.396 440H491.186L491.459 438.154ZM489.125 429.434L491.781 437.979L492.084 440H490.932L488.09 431.143L487.855 429.434H489.125ZM496.84 434.834V434.609C496.84 433.848 496.951 433.141 497.172 432.49C497.393 431.833 497.712 431.263 498.129 430.781C498.546 430.293 499.05 429.915 499.643 429.648C500.235 429.375 500.899 429.238 501.635 429.238C502.377 429.238 503.044 429.375 503.637 429.648C504.236 429.915 504.743 430.293 505.16 430.781C505.583 431.263 505.906 431.833 506.127 432.49C506.348 433.141 506.459 433.848 506.459 434.609V434.834C506.459 435.596 506.348 436.302 506.127 436.953C505.906 437.604 505.583 438.174 505.16 438.662C504.743 439.144 504.239 439.521 503.646 439.795C503.061 440.062 502.396 440.195 501.654 440.195C500.912 440.195 500.245 440.062 499.652 439.795C499.06 439.521 498.552 439.144 498.129 438.662C497.712 438.174 497.393 437.604 497.172 436.953C496.951 436.302 496.84 435.596 496.84 434.834ZM498.646 434.609V434.834C498.646 435.361 498.708 435.859 498.832 436.328C498.956 436.79 499.141 437.201 499.389 437.559C499.643 437.917 499.958 438.2 500.336 438.408C500.714 438.61 501.153 438.711 501.654 438.711C502.149 438.711 502.582 438.61 502.953 438.408C503.331 438.2 503.643 437.917 503.891 437.559C504.138 437.201 504.324 436.79 504.447 436.328C504.577 435.859 504.643 435.361 504.643 434.834V434.609C504.643 434.089 504.577 433.597 504.447 433.135C504.324 432.666 504.135 432.253 503.881 431.895C503.633 431.53 503.321 431.243 502.943 431.035C502.572 430.827 502.136 430.723 501.635 430.723C501.14 430.723 500.704 430.827 500.326 431.035C499.955 431.243 499.643 431.53 499.389 431.895C499.141 432.253 498.956 432.666 498.832 433.135C498.708 433.597 498.646 434.089 498.646 434.609ZM510.531 431.094V440H508.725V429.434H510.482L510.531 431.094ZM513.832 429.375L513.822 431.055C513.673 431.022 513.529 431.003 513.393 430.996C513.262 430.983 513.113 430.977 512.943 430.977C512.527 430.977 512.159 431.042 511.84 431.172C511.521 431.302 511.251 431.484 511.029 431.719C510.808 431.953 510.632 432.233 510.502 432.559C510.378 432.878 510.297 433.229 510.258 433.613L509.75 433.906C509.75 433.268 509.812 432.669 509.936 432.109C510.066 431.549 510.264 431.055 510.531 430.625C510.798 430.189 511.137 429.85 511.547 429.609C511.964 429.362 512.458 429.238 513.031 429.238C513.161 429.238 513.311 429.255 513.48 429.287C513.65 429.313 513.767 429.342 513.832 429.375ZM521.967 437.949V425H523.783V440H522.123L521.967 437.949ZM514.857 434.834V434.629C514.857 433.822 514.955 433.089 515.15 432.432C515.352 431.768 515.635 431.198 516 430.723C516.371 430.247 516.811 429.883 517.318 429.629C517.833 429.368 518.406 429.238 519.037 429.238C519.701 429.238 520.281 429.355 520.775 429.59C521.277 429.818 521.7 430.153 522.045 430.596C522.396 431.032 522.673 431.559 522.875 432.178C523.077 432.796 523.217 433.496 523.295 434.277V435.176C523.223 435.951 523.083 436.647 522.875 437.266C522.673 437.884 522.396 438.411 522.045 438.848C521.7 439.284 521.277 439.619 520.775 439.854C520.274 440.081 519.688 440.195 519.018 440.195C518.399 440.195 517.833 440.062 517.318 439.795C516.811 439.528 516.371 439.154 516 438.672C515.635 438.19 515.352 437.624 515.15 436.973C514.955 436.315 514.857 435.602 514.857 434.834ZM516.674 434.629V434.834C516.674 435.361 516.726 435.856 516.83 436.318C516.941 436.781 517.11 437.188 517.338 437.539C517.566 437.891 517.855 438.167 518.207 438.369C518.559 438.564 518.979 438.662 519.467 438.662C520.066 438.662 520.557 438.535 520.941 438.281C521.332 438.027 521.645 437.692 521.879 437.275C522.113 436.859 522.296 436.406 522.426 435.918V433.564C522.348 433.206 522.234 432.861 522.084 432.529C521.941 432.191 521.752 431.891 521.518 431.631C521.29 431.364 521.007 431.152 520.668 430.996C520.336 430.84 519.942 430.762 519.486 430.762C518.992 430.762 518.565 430.866 518.207 431.074C517.855 431.276 517.566 431.556 517.338 431.914C517.11 432.266 516.941 432.676 516.83 433.145C516.726 433.607 516.674 434.102 516.674 434.629Z" fill="black"/>
<rect x="355" y="150" width="570" height="57" rx="15" fill="white"/>
<rect x="355" y="250" width="570" height="57" rx="15" fill="white"/>
<rect x="355" y="348" width="570" height="57" rx="15" fill="white"/>
<rect x="355" y="460" width="570" height="57" rx="15" fill="white"/>
<rect x="758" y="534" width="167" height="57" rx="15" fill="#414141"/>
<path d="M825.684 567.467V569H818.154V567.467H825.684ZM818.535 554.781V569H816.65V554.781H818.535ZM824.688 560.895V562.428H818.154V560.895H824.688ZM825.586 554.781V556.324H818.154V554.781H825.586ZM829.541 560.533V569H827.725V558.434H829.443L829.541 560.533ZM829.17 563.316L828.33 563.287C828.337 562.564 828.431 561.897 828.613 561.285C828.796 560.667 829.066 560.13 829.424 559.674C829.782 559.218 830.228 558.867 830.762 558.619C831.296 558.365 831.914 558.238 832.617 558.238C833.112 558.238 833.568 558.31 833.984 558.453C834.401 558.59 834.762 558.808 835.068 559.107C835.374 559.407 835.612 559.791 835.781 560.26C835.951 560.729 836.035 561.295 836.035 561.959V569H834.229V562.047C834.229 561.493 834.134 561.051 833.945 560.719C833.763 560.387 833.503 560.146 833.164 559.996C832.826 559.84 832.428 559.762 831.973 559.762C831.439 559.762 830.993 559.856 830.635 560.045C830.277 560.234 829.99 560.494 829.775 560.826C829.561 561.158 829.404 561.539 829.307 561.969C829.215 562.392 829.17 562.841 829.17 563.316ZM836.016 562.32L834.805 562.691C834.811 562.112 834.906 561.555 835.088 561.021C835.277 560.488 835.547 560.012 835.898 559.596C836.257 559.179 836.696 558.85 837.217 558.609C837.738 558.362 838.333 558.238 839.004 558.238C839.57 558.238 840.072 558.313 840.508 558.463C840.951 558.613 841.322 558.844 841.621 559.156C841.927 559.462 842.158 559.856 842.314 560.338C842.471 560.82 842.549 561.393 842.549 562.057V569H840.732V562.037C840.732 561.445 840.638 560.986 840.449 560.66C840.267 560.328 840.007 560.097 839.668 559.967C839.336 559.83 838.939 559.762 838.477 559.762C838.079 559.762 837.728 559.83 837.422 559.967C837.116 560.104 836.859 560.292 836.65 560.533C836.442 560.768 836.283 561.038 836.172 561.344C836.068 561.65 836.016 561.975 836.016 562.32ZM851.514 567.193V561.754C851.514 561.337 851.429 560.976 851.26 560.67C851.097 560.357 850.85 560.117 850.518 559.947C850.186 559.778 849.775 559.693 849.287 559.693C848.831 559.693 848.431 559.771 848.086 559.928C847.747 560.084 847.48 560.289 847.285 560.543C847.096 560.797 847.002 561.07 847.002 561.363H845.195C845.195 560.986 845.293 560.611 845.488 560.24C845.684 559.869 845.964 559.534 846.328 559.234C846.699 558.928 847.142 558.688 847.656 558.512C848.177 558.329 848.757 558.238 849.395 558.238C850.163 558.238 850.84 558.368 851.426 558.629C852.018 558.889 852.48 559.283 852.812 559.811C853.151 560.331 853.32 560.986 853.32 561.773V566.695C853.32 567.047 853.35 567.421 853.408 567.818C853.473 568.215 853.568 568.557 853.691 568.844V569H851.807C851.715 568.792 851.644 568.515 851.592 568.17C851.54 567.818 851.514 567.493 851.514 567.193ZM851.826 562.594L851.846 563.863H850.02C849.505 563.863 849.046 563.906 848.643 563.99C848.239 564.068 847.9 564.189 847.627 564.352C847.354 564.514 847.145 564.719 847.002 564.967C846.859 565.208 846.787 565.491 846.787 565.816C846.787 566.148 846.862 566.451 847.012 566.725C847.161 566.998 847.386 567.216 847.686 567.379C847.992 567.535 848.366 567.613 848.809 567.613C849.362 567.613 849.85 567.496 850.273 567.262C850.697 567.027 851.032 566.741 851.279 566.402C851.533 566.064 851.67 565.735 851.689 565.416L852.461 566.285C852.415 566.559 852.292 566.861 852.09 567.193C851.888 567.525 851.618 567.844 851.279 568.15C850.947 568.45 850.55 568.701 850.088 568.902C849.632 569.098 849.118 569.195 848.545 569.195C847.829 569.195 847.201 569.055 846.66 568.775C846.126 568.495 845.71 568.121 845.41 567.652C845.117 567.177 844.971 566.646 844.971 566.061C844.971 565.494 845.081 564.996 845.303 564.566C845.524 564.13 845.843 563.769 846.26 563.482C846.676 563.189 847.178 562.968 847.764 562.818C848.35 562.669 849.004 562.594 849.727 562.594H851.826ZM858.125 558.434V569H856.309V558.434H858.125ZM856.172 555.631C856.172 555.338 856.26 555.09 856.436 554.889C856.618 554.687 856.885 554.586 857.236 554.586C857.581 554.586 857.845 554.687 858.027 554.889C858.216 555.09 858.311 555.338 858.311 555.631C858.311 555.911 858.216 556.152 858.027 556.354C857.845 556.549 857.581 556.646 857.236 556.646C856.885 556.646 856.618 556.549 856.436 556.354C856.26 556.152 856.172 555.911 856.172 555.631ZM862.988 554V569H861.172V554H862.988Z" fill="white"/>
<path d="M596.617 564.85V554.781H598.492V564.85C598.492 565.787 598.3 566.578 597.916 567.223C597.532 567.867 597.001 568.359 596.324 568.697C595.654 569.029 594.882 569.195 594.01 569.195C593.137 569.195 592.363 569.046 591.686 568.746C591.008 568.447 590.478 567.991 590.094 567.379C589.71 566.767 589.518 565.995 589.518 565.064H591.402C591.402 565.663 591.513 566.155 591.734 566.539C591.956 566.923 592.262 567.206 592.652 567.389C593.049 567.571 593.502 567.662 594.01 567.662C594.505 567.662 594.947 567.558 595.338 567.35C595.735 567.135 596.048 566.819 596.275 566.402C596.503 565.979 596.617 565.462 596.617 564.85ZM607.643 567.193V561.754C607.643 561.337 607.558 560.976 607.389 560.67C607.226 560.357 606.979 560.117 606.646 559.947C606.314 559.778 605.904 559.693 605.416 559.693C604.96 559.693 604.56 559.771 604.215 559.928C603.876 560.084 603.609 560.289 603.414 560.543C603.225 560.797 603.131 561.07 603.131 561.363H601.324C601.324 560.986 601.422 560.611 601.617 560.24C601.812 559.869 602.092 559.534 602.457 559.234C602.828 558.928 603.271 558.688 603.785 558.512C604.306 558.329 604.885 558.238 605.523 558.238C606.292 558.238 606.969 558.368 607.555 558.629C608.147 558.889 608.609 559.283 608.941 559.811C609.28 560.331 609.449 560.986 609.449 561.773V566.695C609.449 567.047 609.479 567.421 609.537 567.818C609.602 568.215 609.697 568.557 609.82 568.844V569H607.936C607.844 568.792 607.773 568.515 607.721 568.17C607.669 567.818 607.643 567.493 607.643 567.193ZM607.955 562.594L607.975 563.863H606.148C605.634 563.863 605.175 563.906 604.771 563.99C604.368 564.068 604.029 564.189 603.756 564.352C603.482 564.514 603.274 564.719 603.131 564.967C602.988 565.208 602.916 565.491 602.916 565.816C602.916 566.148 602.991 566.451 603.141 566.725C603.29 566.998 603.515 567.216 603.814 567.379C604.12 567.535 604.495 567.613 604.938 567.613C605.491 567.613 605.979 567.496 606.402 567.262C606.826 567.027 607.161 566.741 607.408 566.402C607.662 566.064 607.799 565.735 607.818 565.416L608.59 566.285C608.544 566.559 608.421 566.861 608.219 567.193C608.017 567.525 607.747 567.844 607.408 568.15C607.076 568.45 606.679 568.701 606.217 568.902C605.761 569.098 605.247 569.195 604.674 569.195C603.958 569.195 603.329 569.055 602.789 568.775C602.255 568.495 601.839 568.121 601.539 567.652C601.246 567.177 601.1 566.646 601.1 566.061C601.1 565.494 601.21 564.996 601.432 564.566C601.653 564.13 601.972 563.769 602.389 563.482C602.805 563.189 603.307 562.968 603.893 562.818C604.479 562.669 605.133 562.594 605.855 562.594H607.955ZM604.723 556.871L606.617 554H608.795L606.178 556.871H604.723ZM621.676 558.434V559.82H615.963V558.434H621.676ZM617.896 555.865H619.703V566.383C619.703 566.741 619.758 567.011 619.869 567.193C619.98 567.376 620.123 567.496 620.299 567.555C620.475 567.613 620.663 567.643 620.865 567.643C621.015 567.643 621.171 567.63 621.334 567.604C621.503 567.571 621.63 567.545 621.715 567.525L621.725 569C621.581 569.046 621.393 569.088 621.158 569.127C620.93 569.173 620.654 569.195 620.328 569.195C619.885 569.195 619.479 569.107 619.107 568.932C618.736 568.756 618.44 568.463 618.219 568.053C618.004 567.636 617.896 567.076 617.896 566.373V555.865ZM628.18 569.195C627.444 569.195 626.777 569.072 626.178 568.824C625.585 568.57 625.074 568.215 624.645 567.76C624.221 567.304 623.896 566.764 623.668 566.139C623.44 565.514 623.326 564.83 623.326 564.088V563.678C623.326 562.818 623.453 562.053 623.707 561.383C623.961 560.706 624.306 560.133 624.742 559.664C625.178 559.195 625.673 558.84 626.227 558.6C626.78 558.359 627.353 558.238 627.945 558.238C628.701 558.238 629.352 558.368 629.898 558.629C630.452 558.889 630.904 559.254 631.256 559.723C631.607 560.185 631.868 560.732 632.037 561.363C632.206 561.988 632.291 562.672 632.291 563.414V564.225H624.4V562.75H630.484V562.613C630.458 562.145 630.361 561.689 630.191 561.246C630.029 560.803 629.768 560.439 629.41 560.152C629.052 559.866 628.564 559.723 627.945 559.723C627.535 559.723 627.158 559.811 626.812 559.986C626.467 560.156 626.171 560.41 625.924 560.748C625.676 561.087 625.484 561.5 625.348 561.988C625.211 562.477 625.143 563.04 625.143 563.678V564.088C625.143 564.589 625.211 565.061 625.348 565.504C625.491 565.94 625.696 566.324 625.963 566.656C626.236 566.988 626.565 567.249 626.949 567.438C627.34 567.626 627.783 567.721 628.277 567.721C628.915 567.721 629.456 567.59 629.898 567.33C630.341 567.07 630.729 566.721 631.061 566.285L632.154 567.154C631.926 567.499 631.637 567.828 631.285 568.141C630.934 568.453 630.501 568.707 629.986 568.902C629.479 569.098 628.876 569.195 628.18 569.195ZM636.207 560.689V569H634.4V558.434H636.109L636.207 560.689ZM635.777 563.316L635.025 563.287C635.032 562.564 635.139 561.897 635.348 561.285C635.556 560.667 635.849 560.13 636.227 559.674C636.604 559.218 637.053 558.867 637.574 558.619C638.102 558.365 638.684 558.238 639.322 558.238C639.843 558.238 640.312 558.31 640.729 558.453C641.145 558.59 641.5 558.811 641.793 559.117C642.092 559.423 642.32 559.82 642.477 560.309C642.633 560.79 642.711 561.38 642.711 562.076V569H640.895V562.057C640.895 561.503 640.813 561.061 640.65 560.729C640.488 560.39 640.25 560.146 639.938 559.996C639.625 559.84 639.241 559.762 638.785 559.762C638.336 559.762 637.926 559.856 637.555 560.045C637.19 560.234 636.874 560.494 636.607 560.826C636.347 561.158 636.142 561.539 635.992 561.969C635.849 562.392 635.777 562.841 635.777 563.316ZM647.262 554V569H645.455V554H647.262ZM646.832 563.316L646.08 563.287C646.087 562.564 646.194 561.897 646.402 561.285C646.611 560.667 646.904 560.13 647.281 559.674C647.659 559.218 648.108 558.867 648.629 558.619C649.156 558.365 649.739 558.238 650.377 558.238C650.898 558.238 651.367 558.31 651.783 558.453C652.2 558.59 652.555 558.811 652.848 559.117C653.147 559.423 653.375 559.82 653.531 560.309C653.688 560.79 653.766 561.38 653.766 562.076V569H651.949V562.057C651.949 561.503 651.868 561.061 651.705 560.729C651.542 560.39 651.305 560.146 650.992 559.996C650.68 559.84 650.296 559.762 649.84 559.762C649.391 559.762 648.98 559.856 648.609 560.045C648.245 560.234 647.929 560.494 647.662 560.826C647.402 561.158 647.197 561.539 647.047 561.969C646.904 562.392 646.832 562.841 646.832 563.316ZM655.992 563.834V563.609C655.992 562.848 656.103 562.141 656.324 561.49C656.546 560.833 656.865 560.263 657.281 559.781C657.698 559.293 658.202 558.915 658.795 558.648C659.387 558.375 660.051 558.238 660.787 558.238C661.529 558.238 662.197 558.375 662.789 558.648C663.388 558.915 663.896 559.293 664.312 559.781C664.736 560.263 665.058 560.833 665.279 561.49C665.501 562.141 665.611 562.848 665.611 563.609V563.834C665.611 564.596 665.501 565.302 665.279 565.953C665.058 566.604 664.736 567.174 664.312 567.662C663.896 568.144 663.391 568.521 662.799 568.795C662.213 569.062 661.549 569.195 660.807 569.195C660.064 569.195 659.397 569.062 658.805 568.795C658.212 568.521 657.704 568.144 657.281 567.662C656.865 567.174 656.546 566.604 656.324 565.953C656.103 565.302 655.992 564.596 655.992 563.834ZM657.799 563.609V563.834C657.799 564.361 657.861 564.859 657.984 565.328C658.108 565.79 658.294 566.201 658.541 566.559C658.795 566.917 659.111 567.2 659.488 567.408C659.866 567.61 660.305 567.711 660.807 567.711C661.301 567.711 661.734 567.61 662.105 567.408C662.483 567.2 662.796 566.917 663.043 566.559C663.29 566.201 663.476 565.79 663.6 565.328C663.73 564.859 663.795 564.361 663.795 563.834V563.609C663.795 563.089 663.73 562.597 663.6 562.135C663.476 561.666 663.287 561.253 663.033 560.895C662.786 560.53 662.473 560.243 662.096 560.035C661.725 559.827 661.288 559.723 660.787 559.723C660.292 559.723 659.856 559.827 659.479 560.035C659.107 560.243 658.795 560.53 658.541 560.895C658.294 561.253 658.108 561.666 657.984 562.135C657.861 562.597 657.799 563.089 657.799 563.609ZM674.645 560.094V569H672.838V558.434H674.596L674.645 560.094ZM677.945 558.375L677.936 560.055C677.786 560.022 677.643 560.003 677.506 559.996C677.376 559.983 677.226 559.977 677.057 559.977C676.64 559.977 676.272 560.042 675.953 560.172C675.634 560.302 675.364 560.484 675.143 560.719C674.921 560.953 674.745 561.233 674.615 561.559C674.492 561.878 674.41 562.229 674.371 562.613L673.863 562.906C673.863 562.268 673.925 561.669 674.049 561.109C674.179 560.549 674.378 560.055 674.645 559.625C674.911 559.189 675.25 558.85 675.66 558.609C676.077 558.362 676.572 558.238 677.145 558.238C677.275 558.238 677.424 558.255 677.594 558.287C677.763 558.313 677.88 558.342 677.945 558.375ZM683.805 569.195C683.069 569.195 682.402 569.072 681.803 568.824C681.21 568.57 680.699 568.215 680.27 567.76C679.846 567.304 679.521 566.764 679.293 566.139C679.065 565.514 678.951 564.83 678.951 564.088V563.678C678.951 562.818 679.078 562.053 679.332 561.383C679.586 560.706 679.931 560.133 680.367 559.664C680.803 559.195 681.298 558.84 681.852 558.6C682.405 558.359 682.978 558.238 683.57 558.238C684.326 558.238 684.977 558.368 685.523 558.629C686.077 558.889 686.529 559.254 686.881 559.723C687.232 560.185 687.493 560.732 687.662 561.363C687.831 561.988 687.916 562.672 687.916 563.414V564.225H680.025V562.75H686.109V562.613C686.083 562.145 685.986 561.689 685.816 561.246C685.654 560.803 685.393 560.439 685.035 560.152C684.677 559.866 684.189 559.723 683.57 559.723C683.16 559.723 682.783 559.811 682.438 559.986C682.092 560.156 681.796 560.41 681.549 560.748C681.301 561.087 681.109 561.5 680.973 561.988C680.836 562.477 680.768 563.04 680.768 563.678V564.088C680.768 564.589 680.836 565.061 680.973 565.504C681.116 565.94 681.321 566.324 681.588 566.656C681.861 566.988 682.19 567.249 682.574 567.438C682.965 567.626 683.408 567.721 683.902 567.721C684.54 567.721 685.081 567.59 685.523 567.33C685.966 567.07 686.354 566.721 686.686 566.285L687.779 567.154C687.551 567.499 687.262 567.828 686.91 568.141C686.559 568.453 686.126 568.707 685.611 568.902C685.104 569.098 684.501 569.195 683.805 569.195ZM696.871 558.434H698.512V568.775C698.512 569.706 698.323 570.501 697.945 571.158C697.568 571.816 697.04 572.314 696.363 572.652C695.693 572.997 694.918 573.17 694.039 573.17C693.674 573.17 693.245 573.111 692.75 572.994C692.262 572.883 691.78 572.691 691.305 572.418C690.836 572.151 690.442 571.79 690.123 571.334L691.07 570.26C691.513 570.794 691.975 571.165 692.457 571.373C692.945 571.581 693.427 571.686 693.902 571.686C694.475 571.686 694.97 571.578 695.387 571.363C695.803 571.148 696.126 570.829 696.354 570.406C696.588 569.99 696.705 569.475 696.705 568.863V560.758L696.871 558.434ZM689.596 563.834V563.629C689.596 562.822 689.69 562.089 689.879 561.432C690.074 560.768 690.351 560.198 690.709 559.723C691.074 559.247 691.513 558.883 692.027 558.629C692.542 558.368 693.121 558.238 693.766 558.238C694.43 558.238 695.009 558.355 695.504 558.59C696.005 558.818 696.428 559.153 696.773 559.596C697.125 560.032 697.402 560.559 697.604 561.178C697.805 561.796 697.945 562.496 698.023 563.277V564.176C697.952 564.951 697.812 565.647 697.604 566.266C697.402 566.884 697.125 567.411 696.773 567.848C696.428 568.284 696.005 568.619 695.504 568.854C695.003 569.081 694.417 569.195 693.746 569.195C693.115 569.195 692.542 569.062 692.027 568.795C691.52 568.528 691.083 568.154 690.719 567.672C690.354 567.19 690.074 566.624 689.879 565.973C689.69 565.315 689.596 564.602 689.596 563.834ZM691.402 563.629V563.834C691.402 564.361 691.454 564.856 691.559 565.318C691.669 565.781 691.835 566.188 692.057 566.539C692.285 566.891 692.574 567.167 692.926 567.369C693.277 567.564 693.697 567.662 694.186 567.662C694.785 567.662 695.279 567.535 695.67 567.281C696.061 567.027 696.37 566.692 696.598 566.275C696.832 565.859 697.014 565.406 697.145 564.918V562.564C697.073 562.206 696.962 561.861 696.812 561.529C696.669 561.191 696.48 560.891 696.246 560.631C696.018 560.364 695.735 560.152 695.396 559.996C695.058 559.84 694.661 559.762 694.205 559.762C693.71 559.762 693.284 559.866 692.926 560.074C692.574 560.276 692.285 560.556 692.057 560.914C691.835 561.266 691.669 561.676 691.559 562.145C691.454 562.607 691.402 563.102 691.402 563.629ZM703.219 558.434V569H701.402V558.434H703.219ZM701.266 555.631C701.266 555.338 701.354 555.09 701.529 554.889C701.712 554.687 701.979 554.586 702.33 554.586C702.675 554.586 702.939 554.687 703.121 554.889C703.31 555.09 703.404 555.338 703.404 555.631C703.404 555.911 703.31 556.152 703.121 556.354C702.939 556.549 702.675 556.646 702.33 556.646C701.979 556.646 701.712 556.549 701.529 556.354C701.354 556.152 701.266 555.911 701.266 555.631ZM712.271 566.197C712.271 565.937 712.213 565.696 712.096 565.475C711.985 565.247 711.754 565.042 711.402 564.859C711.057 564.671 710.536 564.508 709.84 564.371C709.254 564.247 708.723 564.101 708.248 563.932C707.779 563.762 707.379 563.557 707.047 563.316C706.721 563.076 706.471 562.792 706.295 562.467C706.119 562.141 706.031 561.76 706.031 561.324C706.031 560.908 706.122 560.514 706.305 560.143C706.493 559.771 706.757 559.443 707.096 559.156C707.441 558.87 707.854 558.645 708.336 558.482C708.818 558.32 709.355 558.238 709.947 558.238C710.794 558.238 711.516 558.388 712.115 558.688C712.714 558.987 713.173 559.387 713.492 559.889C713.811 560.383 713.971 560.934 713.971 561.539H712.164C712.164 561.246 712.076 560.963 711.9 560.689C711.731 560.41 711.48 560.178 711.148 559.996C710.823 559.814 710.423 559.723 709.947 559.723C709.446 559.723 709.039 559.801 708.727 559.957C708.421 560.107 708.196 560.299 708.053 560.533C707.916 560.768 707.848 561.015 707.848 561.275C707.848 561.471 707.88 561.646 707.945 561.803C708.017 561.952 708.141 562.092 708.316 562.223C708.492 562.346 708.74 562.464 709.059 562.574C709.378 562.685 709.785 562.796 710.279 562.906C711.145 563.102 711.858 563.336 712.418 563.609C712.978 563.883 713.395 564.218 713.668 564.615C713.941 565.012 714.078 565.494 714.078 566.061C714.078 566.523 713.98 566.946 713.785 567.33C713.596 567.714 713.32 568.046 712.955 568.326C712.597 568.6 712.167 568.814 711.666 568.971C711.171 569.12 710.615 569.195 709.996 569.195C709.065 569.195 708.277 569.029 707.633 568.697C706.988 568.365 706.5 567.936 706.168 567.408C705.836 566.881 705.67 566.324 705.67 565.738H707.486C707.512 566.233 707.656 566.627 707.916 566.92C708.176 567.206 708.495 567.411 708.873 567.535C709.251 567.652 709.625 567.711 709.996 567.711C710.491 567.711 710.904 567.646 711.236 567.516C711.575 567.385 711.832 567.206 712.008 566.979C712.184 566.751 712.271 566.49 712.271 566.197ZM720.875 558.434V559.82H715.162V558.434H720.875ZM717.096 555.865H718.902V566.383C718.902 566.741 718.958 567.011 719.068 567.193C719.179 567.376 719.322 567.496 719.498 567.555C719.674 567.613 719.863 567.643 720.064 567.643C720.214 567.643 720.37 567.63 720.533 567.604C720.702 567.571 720.829 567.545 720.914 567.525L720.924 569C720.781 569.046 720.592 569.088 720.357 569.127C720.13 569.173 719.853 569.195 719.527 569.195C719.085 569.195 718.678 569.107 718.307 568.932C717.936 568.756 717.639 568.463 717.418 568.053C717.203 567.636 717.096 567.076 717.096 566.373V555.865ZM724.801 560.094V569H722.994V558.434H724.752L724.801 560.094ZM728.102 558.375L728.092 560.055C727.942 560.022 727.799 560.003 727.662 559.996C727.532 559.983 727.382 559.977 727.213 559.977C726.796 559.977 726.428 560.042 726.109 560.172C725.79 560.302 725.52 560.484 725.299 560.719C725.077 560.953 724.902 561.233 724.771 561.559C724.648 561.878 724.566 562.229 724.527 562.613L724.02 562.906C724.02 562.268 724.081 561.669 724.205 561.109C724.335 560.549 724.534 560.055 724.801 559.625C725.068 559.189 725.406 558.85 725.816 558.609C726.233 558.362 726.728 558.238 727.301 558.238C727.431 558.238 727.581 558.255 727.75 558.287C727.919 558.313 728.036 558.342 728.102 558.375ZM729.098 563.834V563.609C729.098 562.848 729.208 562.141 729.43 561.49C729.651 560.833 729.97 560.263 730.387 559.781C730.803 559.293 731.308 558.915 731.9 558.648C732.493 558.375 733.157 558.238 733.893 558.238C734.635 558.238 735.302 558.375 735.895 558.648C736.493 558.915 737.001 559.293 737.418 559.781C737.841 560.263 738.163 560.833 738.385 561.49C738.606 562.141 738.717 562.848 738.717 563.609V563.834C738.717 564.596 738.606 565.302 738.385 565.953C738.163 566.604 737.841 567.174 737.418 567.662C737.001 568.144 736.497 568.521 735.904 568.795C735.318 569.062 734.654 569.195 733.912 569.195C733.17 569.195 732.503 569.062 731.91 568.795C731.318 568.521 730.81 568.144 730.387 567.662C729.97 567.174 729.651 566.604 729.43 565.953C729.208 565.302 729.098 564.596 729.098 563.834ZM730.904 563.609V563.834C730.904 564.361 730.966 564.859 731.09 565.328C731.214 565.79 731.399 566.201 731.646 566.559C731.9 566.917 732.216 567.2 732.594 567.408C732.971 567.61 733.411 567.711 733.912 567.711C734.407 567.711 734.84 567.61 735.211 567.408C735.589 567.2 735.901 566.917 736.148 566.559C736.396 566.201 736.581 565.79 736.705 565.328C736.835 564.859 736.9 564.361 736.9 563.834V563.609C736.9 563.089 736.835 562.597 736.705 562.135C736.581 561.666 736.393 561.253 736.139 560.895C735.891 560.53 735.579 560.243 735.201 560.035C734.83 559.827 734.394 559.723 733.893 559.723C733.398 559.723 732.962 559.827 732.584 560.035C732.213 560.243 731.9 560.53 731.646 560.895C731.399 561.253 731.214 561.666 731.09 562.135C730.966 562.597 730.904 563.089 730.904 563.609Z" fill="black"/>
<path d="M589 570.953H739.605V571.93H589V570.953Z" fill="black"/>
</svg>
